<svg width="80" height="60" viewBox="0 0 80 60" fill="none" xmlns="http://www.w3.org/2000/svg">
<path d="M10.9881 21.6323C11.569 21.9748 11.9631 22.3695 12.3049 22.949C12.5118 23.8915 12.4103 24.5451 11.9737 25.384C11.6331 25.8915 11.1857 26.1554 10.6662 26.4604C10.4555 26.5928 10.2452 26.7259 10.0353 26.8597C9.88035 26.9577 9.88035 26.9577 9.72231 27.0578C7.5982 28.4462 5.75042 30.3789 5.05777 32.8687C4.85349 34.7652 5.20296 36.269 6.33552 37.8041C6.52964 38.0353 6.72823 38.2628 6.9305 38.4869C7.04276 38.6118 7.15501 38.7368 7.27067 38.8655C12.84 44.7361 22.563 46.8698 30.3397 47.6945C30.5998 47.6991 30.86 47.7011 31.12 47.6945C31.0128 47.5945 30.9056 47.4945 30.7951 47.3915C29.1259 45.7892 29.1259 45.7892 29.0735 44.6605C29.1018 44.0069 29.1801 43.4752 29.5789 42.9444C30.2692 42.3291 30.8826 42.0249 31.8125 42.0666C33.2047 42.308 34.219 43.5666 35.1758 44.5245C35.3045 44.6526 35.4333 44.7807 35.5659 44.9127C35.8361 45.1819 36.1058 45.4516 36.3752 45.7216C36.7871 46.134 37.201 46.5443 37.6151 46.9544C37.8783 47.2173 38.1414 47.4802 38.4043 47.7433C38.5277 47.8652 38.6511 47.9872 38.7782 48.1128C39.5714 48.9128 40.2379 49.6302 40.2398 50.8157C40.2444 51.004 40.2444 51.004 40.249 51.1961C40.021 52.3739 38.8844 53.2405 38.0745 54.0467C37.9314 54.1901 37.7882 54.3335 37.6408 54.4813C37.3391 54.7835 37.0368 55.0851 36.7341 55.3863C36.3468 55.7718 35.961 56.1587 35.5755 56.546C35.2063 56.9167 34.8359 57.2861 34.4656 57.6556C34.3274 57.7944 34.1892 57.9333 34.0468 58.0763C33.8531 58.2686 33.8531 58.2686 33.6554 58.4647C33.5422 58.5776 33.429 58.6906 33.3124 58.8069C32.6378 59.3979 32.0788 59.4699 31.2035 59.4467C30.4604 59.3573 29.9716 59.0962 29.5045 58.5103C29.0823 57.8009 28.9975 57.1572 29.1247 56.3456C29.3512 55.6437 29.8167 55.2185 30.3397 54.7173C30.4915 54.5646 30.6428 54.4116 30.7939 54.2582C31.2113 53.8355 31.6328 53.4172 32.0564 53.0006C31.8741 52.9759 31.6918 52.9511 31.5041 52.9256C24.5206 51.9624 17.5032 50.7207 11.1442 47.5385C10.9556 47.4459 10.9556 47.4459 10.7631 47.3515C9.06349 46.5129 7.48301 45.5921 5.99414 44.4172C5.90605 44.3478 5.81796 44.2784 5.7272 44.2068C3.05509 42.0753 0.673395 39.3094 0.0638069 35.8339C-0.239922 32.3103 0.518632 29.3189 2.81439 26.563C4.29594 24.8447 5.95589 23.4744 7.86687 22.2565C8.01876 22.1591 8.17064 22.0618 8.32713 21.9615C9.21707 21.4529 9.99816 21.3023 10.9881 21.6323Z" fill="white"/>
<path d="M75.3141 24.6749C75.5652 24.9082 75.8156 25.1422 76.0651 25.3771C76.1708 25.4709 76.2764 25.5646 76.3852 25.6612C78.2572 27.3944 79.8082 30.0444 79.9943 32.6272C80.0917 36.7128 78.9402 39.6981 76.1334 42.6999C69.9533 48.5935 60.8517 51.0801 52.6364 52.3562C52.5175 52.375 52.3985 52.3938 52.276 52.4131C49.7794 52.7714 49.7794 52.7714 48.7544 52.0636C48.0641 51.2987 47.916 50.8283 47.932 49.8172C47.9973 49.1862 48.1819 48.7908 48.5984 48.3182C49.6756 47.6185 50.8471 47.4908 52.0923 47.3093C58.6963 46.337 67.0787 44.5452 71.9728 39.6098C72.3197 39.2666 72.3197 39.2666 72.6318 39.2666C72.6958 39.1266 72.6958 39.1266 72.761 38.9837C72.9379 38.6535 73.1143 38.4413 73.3731 38.1742C74.5761 36.8145 75.053 35.2574 75.0142 33.4795C74.877 31.4569 73.6041 29.8335 72.1782 28.4648C71.6476 28.0124 71.0917 27.5922 70.5297 27.1797C69.8774 26.695 69.4568 26.3084 69.1984 25.5332C69.1138 24.8049 69.1251 24.2726 69.4618 23.6117C69.9103 23.0904 70.3058 22.6836 70.9541 22.4315C72.7945 22.3478 74.0062 23.5174 75.3141 24.6749Z" fill="white"/>
<path d="M40.0347 14.1022C40.188 14.099 40.3413 14.0957 40.4992 14.0924C42.6034 14.0814 44.4 14.6981 45.9382 16.1407C46.9539 17.2263 47.278 18.445 47.35 19.9155C47.2959 20.4607 47.1516 20.8596 46.8136 21.3005C46.2622 21.6975 45.6933 21.6628 45.0384 21.6712C44.7568 21.6772 44.7568 21.6772 44.4696 21.6834C43.8647 21.6273 43.4963 21.4784 42.9803 21.164C42.5499 20.6259 42.4253 20.0914 42.3128 19.4266C42.1553 19.0197 41.9462 18.8899 41.5758 18.667C40.5779 18.3137 39.5964 18.254 38.6106 18.667C38.0265 19.1268 37.727 19.5203 37.5182 20.2276C37.4812 20.7647 37.4888 21.2989 37.4987 21.837C37.5001 21.9823 37.5015 22.1277 37.5029 22.2774C37.5066 22.6346 37.5117 22.9917 37.5182 23.3488C37.62 23.2943 37.7218 23.2398 37.8266 23.1836C39.8538 22.1282 41.8986 22.2241 44.0728 22.8806C45.2514 23.3733 46.2155 24.3539 46.7813 25.4904C47.5723 27.6122 47.6366 30.307 46.7453 32.4101C46.6392 32.6173 46.5291 32.8225 46.4137 33.0246C46.2785 33.266 46.2785 33.266 46.1406 33.5123C44.845 35.1678 43.1681 35.8463 41.1106 36.1026C38.9509 36.3009 36.7048 36.0226 34.8968 34.745C33.3108 33.417 32.8488 31.8988 32.5242 29.9034C32.4646 29.1513 32.4583 28.4044 32.462 27.6503C32.4617 27.4417 32.4613 27.2331 32.4607 27.0245C32.46 26.5912 32.461 26.1579 32.4632 25.7246C32.4658 25.1759 32.4643 24.6273 32.4615 24.0785C32.4598 23.649 32.4604 23.2194 32.4616 22.7899C32.462 22.4914 32.4606 22.1928 32.4592 21.8943C32.474 20.0194 32.6998 18.2154 33.7727 16.6382C33.8628 16.4998 33.953 16.3614 34.0458 16.2188C35.6696 14.5499 37.7978 14.1137 40.0347 14.1022ZM37.7718 27.0065C37.1359 28.0092 37.2068 29.4418 37.4341 30.574C37.7021 31.2866 38.1601 31.6673 38.7667 32.0883C39.5087 32.3994 40.3113 32.2997 41.0588 32.059C41.7492 31.6813 42.0538 31.2955 42.3951 30.5959C42.6605 29.3794 42.6802 28.185 42.044 27.0943C41.558 26.495 41.0887 26.2062 40.3157 26.1232C39.3027 26.0836 38.5038 26.2552 37.7718 27.0065Z" fill="white"/>
<path d="M62.9061 15.2665C64.5312 16.5195 65.1662 18.0902 65.4531 20.0715C65.4983 20.8251 65.5006 21.5771 65.5001 22.332C65.5007 22.5484 65.5013 22.7649 65.5021 22.9814C65.5032 23.4331 65.5032 23.8848 65.5024 24.3365C65.5015 24.9091 65.5041 25.4815 65.5077 26.0541C65.5101 26.5007 65.5102 26.9474 65.5097 27.3941C65.5098 27.7058 65.512 28.0175 65.5142 28.3291C65.5026 30.6489 65.1348 32.6486 63.5414 34.3999C61.9863 35.8554 59.7858 36.2048 57.7287 36.169C55.7379 36.051 53.8307 35.6101 52.3507 34.1975C51.2826 32.8823 50.7688 31.405 50.7557 29.7208C50.7547 29.611 50.7537 29.5013 50.7526 29.3882C50.7496 29.0265 50.7477 28.6648 50.7462 28.3031C50.7455 28.1788 50.7449 28.0544 50.7442 27.9263C50.741 27.2674 50.7388 26.6086 50.7373 25.9497C50.7356 25.2737 50.7302 24.5978 50.724 23.9218C50.7199 23.3981 50.7186 22.8745 50.718 22.3508C50.7173 22.1019 50.7155 21.853 50.7126 21.6041C50.6899 19.5374 50.945 17.6377 52.344 16.0139C54.8974 13.5003 59.9758 13.3538 62.9061 15.2665ZM56.2748 18.7547C55.3107 19.829 55.3962 21.2831 55.403 22.6471C55.4026 22.8466 55.4021 23.046 55.4017 23.2514C55.4013 23.6713 55.402 24.0911 55.4042 24.511C55.4068 25.046 55.4053 25.5809 55.4025 26.116C55.4004 26.6308 55.4019 27.1457 55.403 27.6606C55.4021 27.8512 55.4011 28.0417 55.4001 28.238C55.4031 29.8492 55.4031 29.8492 56.1489 31.2376C56.7759 31.7969 57.2036 31.9103 58.0109 31.9712C58.7556 31.9207 59.3592 31.7655 59.9154 31.2409C60.5236 30.5383 60.6347 30.0261 60.6404 29.1211C60.6419 28.9278 60.6434 28.7345 60.6449 28.5354C60.6457 28.3241 60.6463 28.1127 60.6469 27.9014C60.6478 27.6842 60.6487 27.4671 60.6496 27.25C60.6512 26.7945 60.6522 26.339 60.6527 25.8835C60.6536 25.3019 60.6573 24.7204 60.6618 24.1388C60.6647 23.69 60.6655 23.2412 60.6657 22.7924C60.6662 22.5781 60.6674 22.3638 60.6695 22.1496C60.7085 20.3127 60.7085 20.3127 59.8154 18.7742C58.6053 18.064 57.5016 18.0731 56.2748 18.7547Z" fill="white"/>
<path d="M21.8832 14.0921C22.0418 14.0896 22.2005 14.0871 22.3639 14.0845C23.9864 14.0834 25.7923 14.3871 27.0479 15.496C28.3274 16.8434 28.5604 18.1944 28.5405 19.9971C28.4784 21.7612 28.0432 23.0501 26.7504 24.2849C26.863 24.3718 26.9757 24.4587 27.0918 24.5482C28.0739 25.3558 28.9816 26.2803 29.2474 27.5621C29.2855 28.0883 29.2834 28.6148 29.2864 29.1423C29.2896 29.2827 29.2928 29.4231 29.2961 29.5678C29.3063 31.3291 28.7676 32.9014 27.5996 34.2392C26.0948 35.6502 23.8261 36.1342 21.8149 36.1943C19.6049 36.0971 17.6089 35.6967 15.9822 34.1167C14.9522 32.8867 14.4766 31.5782 14.5215 29.975C14.6001 29.4372 14.7927 29.1614 15.2018 28.8106C15.77 28.6213 16.2975 28.6198 16.8893 28.6156C16.9984 28.6123 17.1075 28.6091 17.22 28.6058C17.9641 28.6002 18.4943 28.6857 19.1034 29.1228C19.2698 29.5562 19.2698 29.5562 19.3472 30.0494C19.4969 30.8009 19.4969 30.8009 19.9422 31.4149C20.9473 31.9174 22.0601 31.8757 23.1415 31.649C23.6162 31.4686 23.7866 31.3766 24.0973 30.9955C24.5225 29.8222 24.5582 28.5692 24.0973 27.4061C23.5217 26.8387 23.0983 26.7001 22.3026 26.6258C21.5076 26.5515 21.0833 26.4125 20.5079 25.8455C20.2343 25.0245 20.2079 24.1458 20.5567 23.3485C20.8677 22.9799 21.1265 22.7482 21.6138 22.6761C21.7906 22.6661 21.7906 22.6661 21.971 22.656C22.5815 22.5974 22.9924 22.5078 23.4731 22.1C23.7625 21.5172 23.8315 21.0306 23.834 20.3833C23.8366 20.2256 23.8392 20.0679 23.8419 19.9054C23.7771 19.381 23.6265 19.091 23.317 18.6666C22.4793 18.1335 21.3684 18.2689 20.4397 18.4716C19.8655 18.9757 19.844 19.5244 19.688 20.2541C19.5716 20.6954 19.5716 20.6954 19.2594 21.1149C18.1515 21.5996 17.0061 21.5159 15.8407 21.2983C15.4053 21.1188 15.2677 20.9547 15.0458 20.5394C14.8316 19.0071 15.0606 17.6949 15.9236 16.419C17.4277 14.5357 19.5945 14.0849 21.8832 14.0921Z" fill="white"/>
<path d="M74.5696 0.93143C76.4359 2.09554 77.5301 3.6471 78.0261 5.77909C78.3292 7.56808 78.0121 9.49441 77.002 11.0199C75.8237 12.5396 74.3968 13.7422 72.4762 14.1412C70.1703 14.3849 68.1873 14.0859 66.3185 12.6324C65.2174 11.6227 64.4963 10.4093 64.0489 8.99114C64.0191 8.8976 63.9893 8.80405 63.9586 8.70767C63.5385 6.53324 64.0636 4.49638 65.2894 2.67737C67.5157 -0.0831927 71.5088 -0.78719 74.5696 0.93143ZM69.8231 5.08961C69.1897 5.68319 68.7552 6.20077 68.6819 7.07939C68.6945 7.94961 69.1228 8.41955 69.6866 9.04967C70.3512 9.42534 70.9497 9.42284 71.6959 9.30327C72.302 8.9947 72.7868 8.66548 73.1004 8.05478C73.2725 7.35702 73.3138 6.81905 73.0809 6.13327C72.6293 5.48602 72.2119 5.17268 71.4813 4.87503C70.7954 4.75677 70.4574 4.80132 69.8231 5.08961Z" fill="white"/>
</svg>
