<svg width="24" height="24" viewBox="0 0 24 24" fill="none" xmlns="http://www.w3.org/2000/svg">
<path d="M22.9418 18.2815C23.242 18.4916 23.4296 18.7693 23.5047 19.1145C23.5797 19.4597 23.5272 19.7975 23.3471 20.1277L22.1764 22.0639C21.7861 22.6943 21.2308 23.1145 20.5103 23.3247C19.94 23.4748 19.3396 23.5498 18.7092 23.5498C15.3171 23.5498 11.4296 21.3584 7.04691 16.9757C1.79362 11.7224 -0.3227 7.23461 0.697938 3.51228C0.90807 2.79183 1.32833 2.23648 1.95873 1.84624L3.89494 0.675508C4.22514 0.495396 4.56285 0.442863 4.90807 0.51791C5.25329 0.592957 5.53096 0.780574 5.74109 1.08076L8.84803 5.76369C9.05816 6.06388 9.13321 6.38658 9.07317 6.73179C9.01314 7.07701 8.84803 7.36969 8.57786 7.60984L6.82177 8.96069C6.5516 9.17082 6.49156 9.41097 6.64165 9.68114L6.77674 9.95131C7.49719 11.2421 8.57036 12.6005 9.99625 14.0264C11.4221 15.4522 12.7805 16.5254 14.0713 17.2459L14.3415 17.3809C14.6116 17.531 14.8518 17.471 15.0619 17.2008L16.4128 15.4447C16.6529 15.1746 16.9456 15.0095 17.2908 14.9494C17.636 14.8894 17.9587 14.9644 18.2589 15.1746L22.9418 18.2815ZM22.6717 19.7224C22.8518 19.3922 22.7917 19.122 22.4916 18.9119L17.8086 15.805C17.5084 15.5948 17.2533 15.6399 17.0432 15.94L15.6923 17.6961C15.4822 17.9663 15.212 18.1314 14.8818 18.1915C14.5516 18.2515 14.2364 18.2065 13.9362 18.0564L13.7111 17.9213C12.3602 17.1708 10.9418 16.0526 9.45591 14.5667C7.96998 13.0808 6.85178 11.6624 6.10132 10.3115L5.96623 10.0864C5.81614 9.7862 5.77111 9.47101 5.83115 9.1408C5.89118 8.81059 6.05629 8.54042 6.32646 8.33029L8.08255 6.97945C8.38274 6.76932 8.42777 6.51416 8.21764 6.21397L6.77674 4.05262L5.1107 1.53104C4.90056 1.23086 4.6304 1.17082 4.30019 1.35093L2.36398 2.52166C1.9137 2.79183 1.61351 3.18207 1.46342 3.69239C0.502816 7.14455 2.54409 11.3922 7.58724 16.4354C12.6304 21.4785 16.8781 23.5198 20.3302 22.5592C20.8405 22.4091 21.2308 22.1089 21.5009 21.6586L22.6717 19.7224ZM13.531 4.32279C13.2908 4.32279 13.1707 4.19521 13.1707 3.94005C13.1707 3.68489 13.2908 3.55731 13.531 3.55731C15.5422 3.55731 17.2608 4.27025 18.6867 5.69615C20.1126 7.12204 20.8255 8.84061 20.8255 10.8519C20.8255 11.122 20.6979 11.2571 20.4428 11.2571C20.1876 11.2571 20.06 11.122 20.06 10.8519C20.06 9.05074 19.4221 7.51228 18.1463 6.23648C16.8705 4.96069 15.3321 4.32279 13.531 4.32279ZM13.531 6.66425C13.2908 6.66425 13.1707 6.53667 13.1707 6.28151C13.1707 6.02635 13.2908 5.89877 13.531 5.89877C14.9118 5.89877 16.0901 6.38658 17.0657 7.36219C18.0413 8.3378 18.5291 9.50102 18.5291 10.8519C18.5291 11.122 18.4015 11.2571 18.1463 11.2571C17.8912 11.2571 17.7636 11.122 17.7636 10.8519C17.7636 9.71116 17.3508 8.72804 16.5253 7.90253C15.6998 7.07701 14.7017 6.66425 13.531 6.66425ZM13.531 8.96069C13.2908 8.96069 13.1707 8.83311 13.1707 8.57795C13.1707 8.32279 13.2908 8.19521 13.531 8.19521C14.2814 8.19521 14.9193 8.45787 15.4447 8.9832C15.97 9.50853 16.2326 10.1314 16.2326 10.8519C16.2326 11.122 16.1051 11.2571 15.8499 11.2571C15.5947 11.2571 15.4672 11.122 15.4672 10.8519C15.4672 10.3415 15.2796 9.89877 14.9043 9.52354C14.5291 9.1483 14.0713 8.96069 13.531 8.96069Z" fill="white"/>
</svg>
