<svg width="42" height="50" viewBox="0 0 42 50" fill="none" xmlns="http://www.w3.org/2000/svg">
<path fill-rule="evenodd" clip-rule="evenodd" d="M1.48721 29.0055C1.48704 29.0675 1.49914 29.129 1.52279 29.1863C1.54645 29.2436 1.5812 29.2957 1.62505 29.3395C1.6689 29.3834 1.72099 29.4181 1.77831 29.4418C1.83564 29.4655 1.89707 29.4775 1.95909 29.4774H4.80246C4.82032 29.4774 4.8383 29.4774 4.85029 29.4785C5.95207 29.5696 7.79428 30.2019 7.70553 33.8624L7.36505 40.8852C11.7733 40.9133 15.1424 40.0783 17.8602 38.2749L14.551 29.9153C14.545 29.8931 14.539 29.8704 14.5271 29.8477C14.2583 28.9051 14.2523 27.8388 14.5151 26.5887C14.5211 26.578 14.5211 26.566 14.5271 26.5559L16.6297 18.3629C16.6954 18.1168 16.546 17.8605 16.3012 17.7918L16.1698 17.7554C15.9429 17.6908 15.7158 17.7972 15.6143 18.0146L12.9621 23.8709C12.5141 24.86 11.857 25.6874 11.0566 26.3169C10.6525 26.6748 10.1843 26.9531 9.67683 27.137C9.13326 27.3712 8.54785 27.5349 7.93859 27.6197L1.89362 28.4524C1.78081 28.4678 1.67745 28.5237 1.60274 28.6096C1.52803 28.6955 1.48706 28.8057 1.48744 28.9195V29.0055H1.48721ZM6.75578 47.7869C6.63568 48.2209 7.09626 48.6032 7.49645 48.38C7.61586 48.3138 7.70553 48.2056 7.74137 48.0754L9.43179 42.3231C9.07932 42.3439 8.71498 42.3583 8.35064 42.3661L6.75578 47.7869ZM15.1781 45.8581C15.1543 45.7949 15.1436 45.7275 15.1467 45.6601C15.1497 45.5926 15.1665 45.5264 15.196 45.4657L16.5818 42.5345C16.665 42.3632 16.6778 42.1661 16.6176 41.9855L16.2413 40.8338C16.5579 40.6964 16.8744 40.5507 17.179 40.3936L17.8123 42.3374L16.1278 45.9047C15.932 46.3123 15.3382 46.2944 15.1781 45.8581ZM8.25509 20.4225C9.7604 20.4225 10.9909 21.65 10.9909 23.1583C10.9909 23.9785 10.6266 24.7149 10.0532 25.2168C9.77248 25.4244 9.47007 25.6008 9.15124 25.743C8.86301 25.8427 8.56018 25.8936 8.25521 25.8936C6.74391 25.8936 5.51938 24.6666 5.51938 23.1584C5.51926 21.6499 6.74379 20.4225 8.25509 20.4225ZM1.6903 26.977L5.59683 26.4389C4.64109 25.6635 4.02583 24.482 4.02583 23.1583C4.02583 20.8287 5.92533 18.9333 8.25498 18.9333C10.1126 18.9333 11.6956 20.1417 12.2571 21.8124L14.2581 17.3987C14.6643 16.51 15.638 16.0577 16.5758 16.3217L16.7072 16.3582C17.7226 16.6455 18.3379 17.7105 18.0751 18.7337L15.9725 26.9094C15.7694 27.8807 15.7634 28.7199 15.9545 29.4026L19.4609 38.276C19.5863 38.5927 19.4787 38.9529 19.2041 39.1529C18.9732 39.3195 18.7382 39.4802 18.4992 39.635L19.3236 42.1551C19.3838 42.3362 19.371 42.5336 19.2877 42.7053L17.4718 46.542C16.7136 48.1469 14.3806 48.0399 13.7744 46.3592C13.5951 45.8539 13.625 45.3109 13.852 44.8282L15.1124 42.1664L14.8496 41.3601C13.6669 41.743 12.4006 42.0166 11.0268 42.182L9.17499 48.4946C8.669 50.1915 6.35375 50.4635 5.4954 48.8906C5.2386 48.4199 5.17878 47.8788 5.32816 47.3663L6.79762 42.3648C6.51293 42.3604 6.27318 42.3728 6.03897 42.1229C5.97106 42.0505 5.91857 41.9652 5.88469 41.8719C5.8508 41.7787 5.83624 41.6795 5.84188 41.5805L6.21221 33.8014C6.26592 31.1175 5.17279 30.9927 4.7786 30.9664H1.9592C0.878059 30.9664 7.37308e-07 30.0872 7.37308e-07 29.0054V28.9194C-0.000114523 27.9292 0.7107 27.112 1.6903 26.977ZM21.044 13.602C21.8862 13.8494 22.7524 13.8935 23.5767 13.7442C20.9564 12.3314 18.9289 9.52285 18.2724 6.5338C17.819 6.48769 17.3745 6.37708 16.9523 6.2053C16.0753 9.30547 17.895 12.6831 21.044 13.602ZM23.9231 7.14975C24.9863 8.9877 25.4104 11.0497 25.1117 12.8154C22.5539 11.8571 20.4841 9.23712 19.7836 6.44239C20.7366 6.22918 21.6016 5.72958 22.2625 5.01062C22.8957 5.62646 23.4632 6.35399 23.9231 7.14975ZM26.6887 11.9469C26.7768 8.97121 25.3521 5.81872 23.0987 3.74967C23.2853 3.33524 23.4101 2.89568 23.4691 2.44503C24.9624 2.81894 26.3303 3.79923 27.1785 5.27169C28.4075 7.4054 28.2527 10.1063 26.6887 11.9469ZM21.8563 2.28021C20.5764 2.35744 19.5462 2.77722 18.5709 3.6117C18.1802 3.94607 17.8202 4.39997 17.5495 4.83981C18.4694 5.20357 19.5087 5.13487 20.3869 4.62657C21.2649 4.11885 21.8443 3.25451 21.9877 2.27721C21.946 2.27837 21.8982 2.27837 21.8563 2.28021ZM16.2593 11.5741C18.253 15.0183 22.5919 16.3912 26.0316 14.4061C29.4672 12.4233 30.4558 7.97236 28.4688 4.52745C27.2345 2.38752 25.0648 1.04923 22.8419 0.821586C21.7701 0.711858 20.9959 0.824928 20.0165 1.11066C19.0423 1.39489 18.0062 2.05845 17.2867 2.77249V2.77664C16.6885 3.37373 16.2065 4.07677 15.8651 4.84995C15.8531 4.87565 15.8412 4.90136 15.8352 4.92821C14.9512 6.97582 15.0347 9.44643 16.2593 11.5741ZM24.6638 20.0807L28.1522 28.0845C28.1769 28.1373 28.193 28.1938 28.2 28.2517L29.3827 34.9645C29.4124 35.1302 29.3848 35.3011 29.3045 35.4491C29.2242 35.5971 29.0959 35.7133 28.9407 35.7787L25.4582 37.2737C25.1655 37.4445 24.4428 37.9565 25.1715 40.1864L26.39 44.1473C26.5142 44.5607 27.139 44.451 27.1247 44.0231L26.9754 39.5735C26.969 39.4249 27.0078 39.2777 27.0867 39.1516C27.1656 39.0254 27.2809 38.9261 27.4174 38.8669L30.1533 37.6645C30.5116 37.5074 30.9238 37.6525 31.109 37.996L36.5745 48.2486C36.7789 48.6337 37.4463 48.3889 37.3391 47.9626L34.8482 38.0725C34.8362 38.0205 34.8243 37.9674 34.8243 37.9137L34.7228 34.5154V34.467C34.7706 33.058 35.5053 31.7103 36.9627 30.3502L40.3974 26.9903C40.7045 26.6914 40.3315 26.1878 39.9554 26.3966L36.1264 28.5273C35.0154 29.1437 33.755 29.2524 32.4767 28.8421C31.969 28.6814 31.4851 28.4478 31.0312 28.1659C30.4816 27.8972 29.9919 27.5118 29.6096 27.0418C28.7734 26.2294 28.1103 25.2863 27.7041 24.4255L25.5238 19.6952C25.2623 19.1253 24.4151 19.5265 24.6638 20.0807ZM32.8712 21.626C34.3824 21.626 35.607 22.8536 35.607 24.3619C35.607 25.8708 34.3825 27.097 32.8712 27.097C32.471 27.097 32.0887 27.0086 31.7422 26.8509C31.3779 26.6168 31.0314 26.3402 30.7148 26.0403C30.3383 25.5619 30.1341 24.9705 30.1354 24.3618C30.1354 22.8536 31.3659 21.626 32.8712 21.626ZM24.4666 18.0384L24.4846 18.033C25.4284 17.7164 26.4618 18.1633 26.88 19.0717L28.7974 23.2435C29.2932 21.4551 30.9299 20.1362 32.8712 20.1362C36.2054 20.1362 38.2447 23.844 36.4134 26.662L39.2328 25.094C40.0803 24.6227 41.0848 24.8619 41.6759 25.677C42.1836 26.4231 42.088 27.423 41.4369 28.0556L37.9843 31.4323C36.8315 32.5045 36.252 33.5069 36.2102 34.4966L36.3118 37.7873L38.7847 47.598C39.0296 48.5806 38.4621 49.565 37.4825 49.8385C37.2631 49.902 37.1173 49.9341 36.8852 49.9341C36.2162 49.9341 35.589 49.5698 35.2545 48.9491L30.1174 39.3058L28.4807 40.0267L28.6181 43.9715C28.6491 44.8866 28.0252 45.6724 27.1128 45.8579C26.6599 45.9538 26.1875 45.8761 25.7892 45.6401C25.3909 45.4041 25.0958 45.0271 24.9624 44.5838L23.7557 40.6431C22.812 37.7694 23.7856 36.509 24.7593 35.957C24.7829 35.9446 24.8068 35.9326 24.831 35.9211L27.8117 34.6416L26.7485 28.5972L23.2958 20.6754C22.8337 19.619 23.379 18.4002 24.4666 18.0384Z" fill="black"/>
</svg>
