<svg width="200" height="107" viewBox="0 0 200 107" fill="none" xmlns="http://www.w3.org/2000/svg">
<path fill-rule="evenodd" clip-rule="evenodd" d="M39.3805 94.9083H40.4666L41.8745 101.545L45.012 94.6267H45.1729L46.8624 101.545L49.6782 94.9485H50.724L46.7015 104.482H46.5406L44.8109 97.4022L41.5929 104.482H41.432L39.3805 94.9485V94.9083ZM51.0458 104.16L52.6951 94.8278H53.7007L52.8962 99.4135C53.2984 99.0515 53.7007 98.7699 54.1432 98.5688C54.5454 98.3677 54.9879 98.2872 55.3902 98.2872C55.7924 98.2872 56.3556 98.4481 56.6774 98.7699C56.9992 99.0917 57.1601 99.494 57.1601 100.017C57.1601 100.54 57.1601 100.218 57.1601 100.339C57.1601 100.459 57.1601 100.58 57.1198 100.66L56.4762 104.2H55.4706L56.1142 100.62C56.1142 100.5 56.1142 100.419 56.1142 100.339C56.1142 100.258 56.1142 100.178 56.1142 100.097C56.1142 99.8158 56.0338 99.5744 55.8326 99.4135C55.6315 99.2526 55.3902 99.1722 55.0281 99.1722C54.4248 99.1722 53.8616 99.3733 53.3789 99.8158C52.8962 100.258 52.6146 100.821 52.4939 101.545L52.0112 104.2H51.0056L51.0458 104.16ZM63.9179 103.838C63.5559 104.039 63.2341 104.16 62.8721 104.281C62.51 104.361 62.1882 104.442 61.8262 104.442C60.9815 104.442 60.2976 104.16 59.7747 103.637C59.2518 103.114 59.0104 102.43 59.0104 101.586C59.0104 100.741 59.3322 99.8158 59.9758 99.1722C60.6194 98.4883 61.3837 98.1665 62.2687 98.1665C63.1536 98.1665 63.6766 98.4079 64.1593 98.8504C64.6017 99.3331 64.8431 99.9767 64.8431 100.781C64.8431 101.586 64.8431 101.063 64.8431 101.264V101.344L64.7224 101.505H60.0965V101.666C60.0965 102.229 60.2574 102.712 60.6194 103.074C60.9815 103.436 61.4239 103.597 61.9871 103.597C62.5503 103.597 62.7514 103.516 63.1134 103.396C63.4754 103.275 63.7972 103.074 64.0788 102.792L63.9984 103.879L63.9179 103.838ZM60.1367 100.781H63.8375V100.58C63.8375 100.057 63.6766 99.6549 63.395 99.3331C63.1134 99.0113 62.7112 98.8906 62.2285 98.8906C61.7457 98.8906 61.2631 99.0515 60.901 99.4135C60.4988 99.7353 60.2574 100.218 60.0965 100.781H60.1367ZM66.2108 104.16L67.2164 98.4481H68.1416L67.9807 99.494C68.3427 99.0917 68.7449 98.7699 69.107 98.609C69.5092 98.4079 69.9115 98.3274 70.354 98.3274H70.4344L70.2735 99.3331C69.5092 99.3331 68.9461 99.5744 68.5036 99.9767C68.0611 100.379 67.7795 101.023 67.6186 101.827L67.2164 104.2H66.2108V104.16ZM76.1464 103.838C75.7844 104.039 75.4626 104.16 75.1005 104.281C74.7385 104.361 74.4167 104.442 74.0547 104.442C73.2099 104.442 72.5261 104.16 72.0032 103.637C71.4803 103.114 71.2389 102.43 71.2389 101.586C71.2389 100.741 71.5607 99.8158 72.2043 99.1722C72.8479 98.4883 73.6122 98.1665 74.4972 98.1665C75.3821 98.1665 75.905 98.4079 76.3877 98.8504C76.8302 99.3331 77.0716 99.9767 77.0716 100.781C77.0716 101.586 77.0716 101.063 77.0716 101.264V101.344L76.9509 101.505H72.325V101.666C72.325 102.229 72.4859 102.712 72.8479 103.074C73.2099 103.436 73.6524 103.597 74.2156 103.597C74.7787 103.597 74.9799 103.516 75.3419 103.396C75.7039 103.275 76.0257 103.074 76.3073 102.792L76.2268 103.879L76.1464 103.838ZM72.3652 100.781H76.0659V100.58C76.0659 100.057 75.905 99.6549 75.6235 99.3331C75.3419 99.0113 74.9396 98.8906 74.4569 98.8906C73.9742 98.8906 73.4915 99.0515 73.1295 99.4135C72.7272 99.7353 72.4859 100.218 72.325 100.781H72.3652ZM82.2606 103.356L82.6629 102.31C83.0651 102.712 83.4674 102.994 83.8294 103.154C84.1914 103.315 84.5937 103.436 84.9557 103.436C85.5189 103.436 85.9211 103.275 86.2832 102.994C86.605 102.712 86.7659 102.31 86.7659 101.827C86.7659 101.344 86.6854 101.224 86.5245 100.942C86.3636 100.701 86.0016 100.379 85.4786 99.9767L84.8351 99.494H84.7948C83.6283 98.609 83.0651 97.8045 83.0651 97C83.0651 96.1955 83.3065 95.7128 83.7892 95.2703C84.2719 94.8278 84.8753 94.5865 85.6396 94.5865C86.4038 94.5865 86.5647 94.6669 87.0474 94.8681C87.5301 95.0692 87.9726 95.3508 88.4151 95.753L87.8922 96.5977C87.5301 96.2357 87.1279 95.9944 86.7659 95.7932C86.3636 95.5921 86.0016 95.5117 85.6396 95.5117C85.2775 95.5117 84.835 95.6323 84.5132 95.9139C84.2317 96.1955 84.0708 96.4771 84.0708 96.8793C84.0708 97.2816 84.1914 97.4425 84.3926 97.6838C84.5937 97.9654 84.9557 98.247 85.4384 98.5688L86.1223 99.0515C86.7659 99.494 87.2083 99.9364 87.4899 100.339C87.7715 100.741 87.8922 101.224 87.8922 101.747C87.8922 102.511 87.6508 103.154 87.1279 103.637C86.605 104.12 85.9614 104.401 85.1569 104.401C84.3523 104.401 84.1914 104.321 83.7087 104.16C83.2663 103.999 82.7836 103.718 82.3009 103.315L82.2606 103.356ZM90.7079 99.1722H89.3805L89.5012 98.4481H90.8286L91.1504 96.638L92.2365 96.2759L91.8342 98.4481H93.403L93.2824 99.1722H91.7136L91.1102 102.672C91.1102 102.672 91.1102 102.712 91.1102 102.752C91.1102 102.833 91.1102 102.913 91.1102 102.994C91.1102 103.154 91.1504 103.275 91.2711 103.356C91.3918 103.436 91.5527 103.476 91.7538 103.476C91.9549 103.476 92.0756 103.476 92.2365 103.436C92.3974 103.436 92.5985 103.356 92.7594 103.275L92.5985 104.16C92.3974 104.2 92.2365 104.241 92.0756 104.281C91.9147 104.281 91.7538 104.321 91.6331 104.321C91.1102 104.321 90.7482 104.241 90.4666 104.039C90.185 103.838 90.0643 103.557 90.0643 103.154C90.0643 102.752 90.0643 102.913 90.1046 102.712C90.1046 102.632 90.1046 102.591 90.1046 102.551L90.7079 99.2526V99.1722ZM94.2478 101.545C94.2478 100.58 94.5696 99.7755 95.2132 99.1319C95.8568 98.4883 96.6211 98.1263 97.506 98.1263C98.391 98.1263 99.0748 98.3677 99.5977 98.8906C100.121 99.4135 100.402 100.097 100.402 100.942C100.402 101.787 100.08 102.712 99.477 103.396C98.8334 104.039 98.0692 104.401 97.1842 104.401C96.2992 104.401 95.6154 104.12 95.0925 103.597C94.5696 103.074 94.288 102.39 94.288 101.545H94.2478ZM97.506 98.8906C96.9026 98.8906 96.3797 99.1319 95.9372 99.6549C95.4947 100.178 95.2936 100.781 95.2936 101.505C95.2936 102.229 95.4545 102.672 95.8165 103.074C96.1786 103.476 96.621 103.677 97.144 103.677C97.6669 103.677 98.2703 103.436 98.7128 102.913C99.1552 102.39 99.3564 101.787 99.3564 101.023C99.3564 100.258 99.1955 99.8962 98.8334 99.494C98.4714 99.0917 98.0289 98.8906 97.506 98.8906ZM101.931 104.16L102.936 98.4481H103.862L103.701 99.494C104.063 99.0917 104.465 98.7699 104.827 98.609C105.229 98.4079 105.632 98.3274 106.074 98.3274H106.154L105.994 99.3331C105.229 99.3331 104.666 99.5744 104.224 99.9767C103.781 100.379 103.5 101.023 103.339 101.827L102.936 104.2H101.931V104.16ZM107.965 96.2357C107.965 96.0346 108.045 95.8737 108.166 95.753C108.286 95.6323 108.447 95.5519 108.648 95.5519C108.85 95.5519 109.01 95.6323 109.131 95.753C109.252 95.8737 109.332 96.0346 109.332 96.2357C109.332 96.4368 109.252 96.5977 109.131 96.7184C109.01 96.8391 108.85 96.9196 108.648 96.9196C108.447 96.9196 108.286 96.8391 108.166 96.7184C108.005 96.5977 107.965 96.4368 107.965 96.2357ZM106.798 104.16L107.804 98.4481H108.809L107.804 104.16H106.798ZM115.286 103.838C114.924 104.039 114.602 104.16 114.24 104.281C113.878 104.361 113.556 104.442 113.194 104.442C112.349 104.442 111.665 104.16 111.142 103.637C110.619 103.114 110.378 102.43 110.378 101.586C110.378 100.741 110.7 99.8158 111.343 99.1722C111.987 98.4883 112.751 98.1665 113.636 98.1665C114.521 98.1665 115.044 98.4079 115.527 98.8504C115.969 99.3331 116.211 99.9767 116.211 100.781C116.211 101.586 116.211 101.063 116.211 101.264V101.344L116.09 101.505H111.464V101.666C111.464 102.229 111.625 102.712 111.987 103.074C112.349 103.436 112.792 103.597 113.355 103.597C113.918 103.597 114.119 103.516 114.481 103.396C114.843 103.275 115.165 103.074 115.446 102.792L115.366 103.879L115.286 103.838ZM111.545 100.781H115.245V100.58C115.245 100.057 115.084 99.6549 114.803 99.3331C114.521 99.0113 114.119 98.8906 113.636 98.8906C113.154 98.8906 112.671 99.0515 112.309 99.4135C111.907 99.7353 111.665 100.218 111.504 100.781H111.545ZM117.297 103.356L117.82 102.632C118.142 102.953 118.423 103.195 118.745 103.356C119.067 103.516 119.389 103.597 119.71 103.597C120.032 103.597 120.314 103.516 120.515 103.356C120.716 103.195 120.837 102.994 120.837 102.752C120.837 102.511 120.756 102.39 120.636 102.229C120.515 102.068 120.274 101.907 119.911 101.747L119.389 101.505C118.906 101.264 118.584 101.023 118.383 100.741C118.182 100.459 118.061 100.178 118.061 99.8158C118.061 99.4537 118.262 98.9308 118.624 98.609C118.986 98.2872 119.469 98.1263 120.072 98.1263C120.676 98.1263 120.877 98.2067 121.239 98.3677C121.601 98.5286 121.963 98.7699 122.285 99.0917L121.842 99.7755C121.561 99.494 121.279 99.2526 120.957 99.1319C120.676 98.971 120.354 98.9308 120.032 98.9308C119.71 98.9308 119.469 99.0113 119.268 99.1722C119.067 99.3331 118.986 99.5342 118.986 99.7755C118.986 100.017 119.268 100.379 119.791 100.701C119.831 100.701 119.871 100.741 119.911 100.741L120.273 100.942C120.917 101.304 121.319 101.586 121.52 101.827C121.722 102.068 121.802 102.39 121.802 102.712C121.802 103.235 121.601 103.677 121.239 103.959C120.877 104.281 120.354 104.442 119.71 104.442C119.067 104.442 118.825 104.361 118.423 104.2C118.021 104.039 117.619 103.758 117.257 103.436L117.297 103.356ZM128.841 103.235H130.571C131.255 103.235 131.778 103.074 132.18 102.712C132.582 102.39 132.743 101.907 132.743 101.304C132.743 100.701 132.582 100.379 132.22 100.097C131.858 99.8158 131.376 99.6549 130.772 99.6549H129.445L128.841 103.235ZM129.606 98.8504H130.893C131.617 98.8504 132.18 98.6895 132.582 98.4079C132.985 98.1263 133.186 97.724 133.186 97.2011C133.186 96.6782 133.025 96.3966 132.663 96.1553C132.301 95.9541 131.738 95.8335 130.933 95.8335H130.169L129.646 98.8101L129.606 98.8504ZM127.595 104.16L129.204 94.9485H130.732C131.899 94.9485 132.784 95.1496 133.347 95.5117C133.91 95.8737 134.191 96.4368 134.191 97.2011C134.191 97.9654 134.031 98.2068 133.709 98.609C133.387 99.0113 132.944 99.2526 132.341 99.4135C132.784 99.6146 133.146 99.8962 133.387 100.218C133.628 100.58 133.749 100.982 133.749 101.465C133.749 101.948 133.669 102.27 133.508 102.632C133.347 102.994 133.105 103.275 132.784 103.516C132.502 103.758 132.14 103.919 131.738 103.999C131.335 104.08 130.732 104.16 129.928 104.16H127.635H127.595ZM140.627 103.838C140.265 104.039 139.944 104.16 139.582 104.281C139.22 104.361 138.898 104.442 138.536 104.442C137.691 104.442 137.007 104.16 136.484 103.637C135.961 103.114 135.72 102.43 135.72 101.586C135.72 100.741 136.042 99.8158 136.685 99.1722C137.329 98.4883 138.093 98.1665 138.978 98.1665C139.863 98.1665 140.386 98.4079 140.869 98.8504C141.311 99.3331 141.553 99.9767 141.553 100.781C141.553 101.586 141.553 101.063 141.553 101.264V101.344L141.432 101.505H136.806V101.666C136.806 102.229 136.967 102.712 137.329 103.074C137.691 103.436 138.134 103.597 138.697 103.597C139.26 103.597 139.461 103.516 139.823 103.396C140.185 103.275 140.507 103.074 140.788 102.792L140.708 103.879L140.627 103.838ZM136.887 100.781H140.587V100.58C140.587 100.057 140.426 99.6549 140.145 99.3331C139.863 99.0113 139.461 98.8906 138.978 98.8906C138.496 98.8906 138.013 99.0515 137.651 99.4135C137.249 99.7353 137.007 100.218 136.846 100.781H136.887ZM147.506 103.516C147.144 103.798 146.822 104.039 146.541 104.16C146.219 104.281 145.897 104.361 145.575 104.361C144.851 104.361 144.248 104.12 143.805 103.597C143.363 103.074 143.121 102.43 143.121 101.626C143.121 100.821 143.443 99.8962 144.047 99.2124C144.65 98.5286 145.374 98.2068 146.179 98.2068C146.983 98.2068 146.983 98.2872 147.305 98.4481C147.627 98.609 147.948 98.8504 148.23 99.1722L148.391 98.4079H149.397L148.471 103.798C148.27 104.844 147.948 105.648 147.466 106.171C146.983 106.694 146.299 106.936 145.495 106.936C144.69 106.936 144.73 106.895 144.368 106.775C144.006 106.654 143.604 106.493 143.202 106.252L143.363 105.327C143.765 105.568 144.127 105.769 144.449 105.89C144.771 106.01 145.092 106.091 145.414 106.091C146.018 106.091 146.5 105.89 146.862 105.488C147.224 105.085 147.466 104.442 147.627 103.557L147.506 103.516ZM148.069 100.097C147.747 99.6549 147.466 99.3733 147.184 99.2124C146.903 99.0515 146.621 98.971 146.299 98.971C145.696 98.971 145.173 99.2526 144.771 99.7755C144.328 100.298 144.127 100.942 144.127 101.706C144.127 102.471 144.288 102.712 144.57 103.074C144.891 103.436 145.253 103.597 145.736 103.597C146.219 103.597 146.782 103.396 147.144 102.953C147.506 102.511 147.788 101.907 147.908 101.103L148.069 100.178V100.097ZM151.931 96.2357C151.931 96.0346 152.011 95.8737 152.132 95.753C152.253 95.6323 152.413 95.5519 152.615 95.5519C152.816 95.5519 152.977 95.6323 153.097 95.753C153.218 95.8737 153.298 96.0346 153.298 96.2357C153.298 96.4368 153.218 96.5977 153.097 96.7184C152.977 96.8391 152.816 96.9196 152.615 96.9196C152.413 96.9196 152.253 96.8391 152.132 96.7184C151.971 96.5977 151.931 96.4368 151.931 96.2357ZM150.764 104.16L151.77 98.4481H152.776L151.77 104.16H150.764ZM154.224 104.16L155.229 98.4481H156.235L156.074 99.4135C156.476 99.0515 156.879 98.7699 157.321 98.5688C157.723 98.3677 158.166 98.2872 158.568 98.2872C158.97 98.2872 159.533 98.4481 159.855 98.7699C160.177 99.0917 160.338 99.494 160.338 100.017C160.338 100.54 160.338 100.218 160.338 100.339C160.338 100.459 160.338 100.58 160.298 100.66L159.654 104.2H158.648L159.292 100.62C159.292 100.54 159.292 100.419 159.292 100.339C159.292 100.258 159.292 100.178 159.292 100.097C159.292 99.8158 159.212 99.5744 159.01 99.4135C158.809 99.2526 158.568 99.1722 158.206 99.1722C157.603 99.1722 157.039 99.3733 156.557 99.8158C156.074 100.258 155.792 100.821 155.672 101.545L155.189 104.2H154.183L154.224 104.16ZM162.671 103.597C162.671 103.396 162.751 103.235 162.872 103.114C162.993 102.994 163.154 102.913 163.355 102.913C163.556 102.913 163.717 102.994 163.837 103.114C163.958 103.235 164.039 103.396 164.039 103.597C164.039 103.798 163.958 103.959 163.837 104.08C163.717 104.2 163.556 104.281 163.355 104.281C163.154 104.281 162.993 104.2 162.872 104.08C162.711 103.959 162.671 103.798 162.671 103.597Z" fill="white"/>
<path fill-rule="evenodd" clip-rule="evenodd" d="M80.2091 39.156C79.0024 33.444 81.0941 27.9734 85.0361 23.3475C95.1729 11.481 113.475 11.9235 130.33 16.1874C136.404 17.7159 142.759 20.1697 149.035 22.9855L149.155 23.0659C151.126 23.9509 153.097 24.876 155.028 25.8012L186.806 40.7248L193.121 32.8004C173.934 23.9106 138.656 4.03936 111.424 4.60252C107.401 4.72319 103.379 5.16567 99.4368 6.05063C95.9774 6.85513 92.4376 8.06189 89.1793 9.8318C82.9042 13.2509 78.1978 18.9227 76.9106 26.0023C76.1464 30.2662 76.6693 34.8117 78.8012 39.1158H80.2091V39.156Z" fill="white"/>
<path fill-rule="evenodd" clip-rule="evenodd" d="M82.502 56.8553C82.4216 53.9189 81.6975 51.0226 79.8471 48.8102C77.9968 46.5979 75.543 45.7129 72.8077 45.7129C70.0724 45.7129 67.0153 46.7588 64.8431 49.132C62.6307 51.5456 61.7458 54.6027 61.7458 57.9414C61.7458 61.2801 62.7916 64.2165 65.1247 66.5496C67.5382 68.9631 70.6356 70.0089 73.8938 70.0089C76.6291 70.0894 79.4449 69.3251 81.0137 68.3597L81.8584 65.4635C80.893 65.9462 79.8874 66.3887 78.8817 66.7105C77.6348 67.1127 76.3878 67.3541 75.1006 67.3541C72.5664 67.3541 70.2735 66.5898 68.4634 64.659C66.613 62.688 65.8488 60.1538 65.7683 57.4184V56.9357H82.5422L82.502 56.8553ZM113.677 38.0299C112.671 38.1505 111.665 38.3115 110.66 38.3919C110.217 38.4321 109.775 38.4724 109.373 38.4724C109.614 38.7942 109.815 39.1562 109.976 39.5987C110.257 40.4032 110.378 41.2881 110.378 42.1329V65.3428C110.378 66.1876 110.298 67.0725 109.976 67.877C109.815 68.2793 109.614 68.6413 109.373 68.9631H114.682C114.441 68.6413 114.24 68.2793 114.079 67.877C113.757 67.0725 113.677 66.1876 113.677 65.3428V38.0299ZM44.288 68.2793C46.42 69.3653 48.6323 69.9687 50.9654 70.0492C53.5398 70.1296 56.3154 69.7274 58.4875 68.1586C60.2574 66.8714 61.1826 65.1417 61.1826 62.8086C61.1826 60.4756 60.7401 60.3951 59.9356 59.3895C58.8898 58.1023 57.2406 57.1771 55.8327 56.453C54.9477 56.0106 54.0225 55.6083 53.0973 55.2463C51.6492 54.6429 48.753 53.3155 48.753 51.2238C48.753 49.132 49.1553 49.3734 49.9195 48.8102C50.7643 48.1666 51.8504 48.0057 52.8962 48.0057C53.9823 48.0057 55.0684 48.2471 56.1142 48.6091C57.0796 48.9309 57.9646 49.3332 58.8898 49.7757V46.6783C57.9646 46.437 56.9992 46.2358 56.074 46.0749C55.1488 45.914 54.2639 45.8336 53.3387 45.7934C51.2872 45.7531 49.0346 46.0347 47.3451 47.3621C45.9373 48.4482 45.2534 49.9366 45.2534 51.8674C45.2534 53.7982 45.6557 54.3211 46.4602 55.367C47.4658 56.6139 49.115 57.5794 50.4827 58.2632C51.0861 58.585 51.6895 58.8666 52.2928 59.1079C53.9018 59.832 57.4417 61.5616 57.4417 63.8545C57.4417 66.1473 56.8383 66.1876 55.7924 66.8714C54.5857 67.6759 53.1376 67.877 51.7297 67.8368C48.9139 67.7563 47.5463 66.6703 45.7764 65.3026L44.288 68.239V68.2793ZM0.0402216 68.9229H9.01046C12.3089 68.9229 15.9694 68.3999 18.6645 66.3887C20.9574 64.6992 22.0837 62.4064 22.0837 59.5504C22.0837 56.6944 21.5607 56.0508 20.3138 54.6429C18.9461 53.1143 16.9751 52.1892 15.0442 51.626L13.9582 51.3042L14.9638 50.8215C16.2108 50.2181 17.4175 49.4136 18.2623 48.2873C18.9863 47.3621 19.3081 46.3163 19.3081 45.19C19.3081 43.1787 18.4634 41.6502 16.7739 40.5238C14.7224 39.116 11.9871 38.7539 9.57361 38.7539H0C0.321802 39.1562 0.603379 39.6389 0.804505 40.1618C1.20676 41.2077 1.24698 42.6558 1.24698 43.7821V63.8545C1.24698 64.9808 1.20676 66.4289 0.804505 67.4748C0.603379 67.9977 0.321802 68.4804 0 68.9229H0.0402216ZM5.34996 66.0669V53.6373L5.71199 53.5568C6.43604 53.4361 7.20032 53.3155 7.92438 53.235C8.52775 53.1546 9.09091 53.1143 9.69429 53.1143C11.8262 53.1143 13.9179 53.6373 15.5672 55.0452C17.0957 56.3324 17.86 58.0218 17.86 59.9929C17.86 61.9639 17.1762 63.4925 15.6879 64.6992C14.0386 65.9864 11.9067 66.3887 9.85519 66.3887C7.8037 66.3887 8.93001 66.3887 8.48753 66.3485C7.56235 66.268 6.63717 66.1876 5.75221 66.1071H5.34996V66.0669ZM5.34996 51.0226V41.2881L5.67176 41.2077C6.27514 41.087 6.87852 40.9663 7.44167 40.8859C7.9646 40.8054 8.44731 40.7652 8.97024 40.7652C10.539 40.7652 12.148 41.087 13.3548 42.0926C14.5213 43.058 14.9638 44.3452 14.9638 45.8336C14.9638 47.3219 14.4006 48.8102 13.1537 49.8159C11.786 50.902 9.93564 51.2238 8.20595 51.2238C6.47627 51.2238 7.321 51.2238 6.91874 51.1835C6.47627 51.1835 6.07401 51.1031 5.63154 51.0226L5.26951 50.9422L5.34996 51.0226ZM22.848 62.5673C22.848 64.5383 23.4916 66.1473 24.8592 67.4748C26.3073 68.8826 28.1175 69.4458 30.0483 69.4458C31.9791 69.4458 32.6227 69.1642 33.8294 68.8424L35.1971 66.4289C34.1512 66.63 33.1858 66.9116 32.0998 66.9116C31.0137 66.9116 29.3242 66.5898 28.1979 65.7049C27.1923 64.9003 26.6291 63.774 26.6291 62.4064C26.6291 59.9526 29.7667 58.7459 31.5366 58.1023C33.1054 57.5391 34.7144 57.0564 36.3636 56.6139L36.8866 56.4933V63.7338C36.8866 65.1015 37.1279 66.7105 38.1336 67.6759C39.1794 68.6413 40.9895 68.8424 42.3572 68.8424L43.7249 66.5496C42.7595 66.4289 41.6331 66.1071 41.0298 65.383C40.1448 64.3774 40.1448 61.5617 40.1448 60.2744V54.6429C40.1448 53.1948 40.1046 51.1835 39.5817 49.8159C39.2196 48.8102 38.6162 48.0057 37.8117 47.3219C37.1279 46.7588 36.3636 46.3967 35.5189 46.1152C32.5422 44.8682 29.1231 45.5922 26.3073 46.3967L25.2615 50.0572C26.1062 49.5343 27.0314 49.0918 27.9566 48.8102C30.1287 48.0862 33.3065 48.0057 35.2776 49.3332C36.243 49.9768 36.8061 50.902 36.8061 52.1489C36.8061 53.3959 36.3636 53.8786 35.6396 54.4016C35.1569 54.7234 34.5535 54.9647 34.0306 55.1256C33.0652 55.4474 31.9791 55.6888 30.8125 55.9703C27.2325 56.7748 22.8077 57.8609 22.8077 62.6075L22.848 62.5673ZM66.0499 53.9591C66.251 52.2294 66.8946 50.7008 68.1014 49.5343C69.3484 48.3678 70.8769 47.9253 72.4859 47.9253C74.0949 47.9253 75.5028 48.4482 76.6694 49.6148C77.8359 50.7813 78.399 52.2696 78.5197 53.9591V54.4418H65.9694L66.0499 53.9188V53.9591ZM158.568 46.0749H153.419C153.62 46.3163 153.781 46.5576 153.902 46.799C154.143 47.2817 154.304 47.8046 154.304 48.3275C154.304 48.8505 154.224 49.132 154.143 49.5343C153.982 50.0975 153.741 50.6606 153.54 51.1835L147.426 65.8255L139.903 45.3509C139.381 45.5922 138.777 45.7531 138.214 45.8336C137.249 45.9945 136.243 46.0347 135.237 46.0749C135.64 46.4772 135.961 46.9197 136.283 47.4024C136.967 48.408 137.53 49.655 138.013 50.8215L143.282 64.3372C143.886 65.8255 144.771 67.877 145.817 69.0838C146.5 69.8883 147.345 70.4514 148.311 70.8537L158.568 46.1152V46.0749ZM89.2599 69.0033H106.798L108.447 64.3372C107.442 64.9003 106.356 65.383 105.27 65.7049C102.092 66.6703 97.7474 66.7105 94.5696 65.7853V53.8384H99.3564C100.04 53.8384 100.764 53.8384 101.448 53.9188C101.891 53.9188 102.414 53.9993 102.816 54.12C103.138 54.2004 103.459 54.3211 103.701 54.482V51.3042H94.5696V41.449C97.6669 40.8456 102.454 40.6445 105.229 42.4144V38.7942H89.2599C89.5817 39.2366 89.8632 39.6791 90.0644 40.202C90.4666 41.2479 90.5068 42.696 90.5068 43.8223V63.8947C90.5068 65.021 90.4666 66.4691 90.0644 67.515C89.8632 68.0379 89.5817 68.5206 89.2599 68.9631V69.0033ZM137.128 56.9357H120.354V57.4184C120.475 60.1538 121.239 62.688 123.089 64.659C124.899 66.5898 127.192 67.3541 129.726 67.3541C132.261 67.3541 132.301 67.1127 133.508 66.7105C134.513 66.3887 135.519 65.9462 136.484 65.4635L135.64 68.3597C134.071 69.3654 131.255 70.0894 128.52 70.0089C125.261 70.0089 122.124 68.9631 119.751 66.5496C117.418 64.2165 116.372 61.3203 116.372 57.9414C116.372 54.5625 117.257 51.5858 119.469 49.132C121.641 46.7588 124.336 45.7129 127.434 45.7129C130.531 45.7129 132.623 46.5979 134.473 48.8102C136.364 51.0629 137.047 53.9189 137.128 56.8553V56.9357ZM120.676 54.0395L120.595 54.5625H133.146V54.0798C133.025 52.3903 132.462 50.902 131.295 49.7354C130.129 48.5689 128.721 48.046 127.112 48.046C125.503 48.046 123.974 48.4884 122.727 49.655C121.48 50.7813 120.877 52.3501 120.676 54.0798V54.0395ZM178.278 56.9357H161.504V57.4184C161.625 60.1538 162.389 62.688 164.24 64.659C166.05 66.5898 168.343 67.3541 170.877 67.3541C173.411 67.3541 173.451 67.1127 174.658 66.7105C175.664 66.3887 176.669 65.9462 177.635 65.4635L176.79 68.3597C175.221 69.3654 172.405 70.0894 169.67 70.0089C166.412 70.0089 163.274 68.9631 160.901 66.5496C158.568 64.2165 157.522 61.3203 157.522 57.9414C157.522 54.5625 158.407 51.5858 160.619 49.132C162.792 46.7588 165.487 45.7129 168.584 45.7129C171.681 45.7129 173.773 46.5979 175.624 48.8102C177.514 51.0629 178.198 53.9189 178.278 56.8553V56.9357ZM161.826 54.0395L161.746 54.5625H174.296V54.0798C174.175 52.3903 173.612 50.902 172.446 49.7354C171.279 48.5689 169.871 48.046 168.262 48.046C166.653 48.046 165.125 48.4884 163.878 49.655C162.631 50.7813 162.027 52.3501 161.826 54.0798V54.0395ZM194.61 69.0033H200C199.759 68.6413 199.558 68.239 199.397 67.8368C199.115 66.9921 198.994 66.0267 198.994 65.1015V54.1602C198.994 51.9076 198.391 49.8963 196.862 48.3275C194.127 45.4715 189.863 45.5922 186.726 47.4426C185.519 48.1666 184.473 49.1321 183.91 50.2584L183.669 46.1554C182.945 46.2761 182.18 46.3967 181.456 46.4772C180.813 46.5576 180.209 46.5979 179.566 46.5979C179.807 46.9599 180.008 47.3621 180.169 47.8046C180.491 48.6896 180.571 49.655 180.571 50.5802V65.1015C180.571 66.0267 180.491 66.9518 180.169 67.8368C180.008 68.2793 179.807 68.6413 179.566 69.0033H184.916C184.674 68.6413 184.473 68.239 184.312 67.8368C183.99 66.9921 183.91 66.0267 183.91 65.1015V56.4128C183.91 54.6027 184.111 52.2294 185.278 50.7813C186.404 49.3734 188.134 49.0114 189.783 49.0114C191.432 49.0114 193.121 49.4538 194.208 50.902C195.334 52.4707 195.575 54.844 195.575 56.7346V65.0612C195.575 65.9864 195.495 66.9518 195.173 67.7966C195.012 68.239 194.811 68.6011 194.57 68.9631L194.61 69.0033Z" fill="white"/>
<path fill-rule="evenodd" clip-rule="evenodd" d="M193.162 30.8296L192.357 25.7612C171.521 16.2278 151.689 5.32676 128.681 1.30424C116.09 -0.707027 100.684 -1.14951 88.4151 5.60834C82.0998 9.06771 77.3532 14.7797 76.066 21.8593C75.704 23.8706 75.6235 25.9623 75.8649 28.0138C75.8649 27.0082 76.0258 26.0025 76.1867 24.9969C78.1577 14.0154 87.852 7.70005 97.8681 5.08541C107.643 2.51099 118.584 2.91325 128.117 4.84406C135.8 6.41284 142.92 8.54478 150.483 11.4008C155.672 13.3718 160.78 15.5842 165.849 17.877C175.02 21.98 184.071 26.6059 193.122 30.8296H193.162Z" fill="white"/>
<path fill-rule="evenodd" clip-rule="evenodd" d="M0.241287 83.404V75.4393H1.16647V78.7781H5.55103V75.4393H6.4762V83.404H5.55103V79.6228H1.16647V83.404H0.241287ZM9.77468 79.4217C9.77468 80.3871 10.0563 81.1916 10.6194 81.8352C11.1826 82.4788 11.8664 82.8006 12.7111 82.8006C13.5558 82.8006 14.2397 82.4788 14.8028 81.8352C15.366 81.1916 15.6476 80.3871 15.6476 79.4217C15.6476 78.4563 15.366 77.6517 14.8028 77.0081C14.2397 76.3645 13.5558 76.0427 12.7111 76.0427C11.8664 76.0427 11.1826 76.3645 10.6194 77.0081C10.0563 77.6517 9.77468 78.4563 9.77468 79.4217ZM8.80927 79.4217C8.80927 78.8183 8.88972 78.2551 9.09084 77.7724C9.29197 77.2495 9.57355 76.807 9.93558 76.4048C10.2976 76.0025 10.6999 75.7209 11.1826 75.5198C11.6653 75.3187 12.148 75.198 12.6709 75.198C13.1938 75.198 13.6765 75.3187 14.1592 75.5198C14.6419 75.7209 15.0442 76.0427 15.4062 76.4048C15.7682 76.807 16.0498 77.2495 16.2509 77.7724C16.4521 78.2953 16.5325 78.8585 16.5325 79.4217C16.5325 79.9848 16.4521 80.3871 16.3314 80.8295C16.2107 81.272 16.0096 81.6743 15.728 82.0363C15.366 82.5592 14.9235 82.9615 14.3604 83.2431C13.8374 83.5246 13.234 83.6855 12.6307 83.6855C12.0273 83.6855 11.625 83.5649 11.1423 83.3637C10.6596 83.1626 10.2574 82.8408 9.89535 82.4788C9.53332 82.0765 9.25175 81.5938 9.05062 81.1111C8.8495 80.5882 8.76905 80.0653 8.76905 79.4619L8.80927 79.4217ZM20.6355 83.404V76.2841H17.86V75.4393H24.3764V76.2841H21.6009V83.404H20.6355ZM26.267 83.404V75.4393H30.6114V76.2439H27.1922V78.8585H30.1689V79.663H27.1922V82.5592H30.6516V83.404H26.267ZM33.1858 83.404V75.4393H34.111V82.5592H37.8117V83.404H33.1456H33.1858ZM44.4891 80.5882H47.5462L46.0176 77.0886L44.4891 80.5882ZM42.3169 83.404L46.0176 75.198H46.1383L49.839 83.404H48.8334L47.9484 81.3927H44.2075L43.3225 83.404H42.3571H42.3169ZM51.4883 83.404V75.1578H51.609L56.9187 81.3927V75.3991H57.8439V83.6453H57.7232L52.4537 77.4104V83.404H51.5285H51.4883ZM61.6653 82.519H62.6307C63.757 82.519 64.6419 82.2374 65.2855 81.7145C65.9291 81.1513 66.2509 80.3871 66.2509 79.4217C66.2509 78.4563 65.9291 77.692 65.2855 77.1288C64.6419 76.5657 63.757 76.2841 62.6307 76.2841H61.6653V82.519ZM60.7401 83.404V75.4393H62.4698C63.9581 75.4393 65.0844 75.8014 65.9291 76.5254C66.7739 77.2495 67.1761 78.2149 67.1761 79.4619C67.1761 80.7089 67.0152 80.8698 66.6934 81.4329C66.3716 81.9961 65.8889 82.4788 65.2453 82.8408C64.8833 83.0419 64.481 83.2028 64.0386 83.2833C63.5961 83.3637 63.0731 83.4442 62.4295 83.4442H60.6999L60.7401 83.404ZM78.3587 82.881C77.9967 83.1224 77.6347 83.3235 77.2324 83.4442C76.8302 83.5649 76.4279 83.6453 75.9855 83.6453C75.543 83.6453 75.1005 83.5649 74.6982 83.404C74.296 83.2431 73.8937 83.0419 73.5719 82.7603C73.0892 82.3581 72.687 81.8754 72.4456 81.272C72.1641 80.6686 72.0434 80.0653 72.0434 79.3412C72.0434 78.1344 72.4054 77.0886 73.1697 76.2841C73.934 75.4796 74.8591 75.0773 76.0257 75.0773C77.1922 75.0773 76.8302 75.1578 77.2324 75.2785C77.5945 75.3991 77.9967 75.6002 78.3587 75.8416L78.2783 76.8472C77.9163 76.5254 77.5542 76.3243 77.1922 76.1634C76.8302 76.0025 76.4682 75.9623 76.0659 75.9623C75.1809 75.9623 74.4569 76.2841 73.8937 76.9277C73.3306 77.5713 73.049 78.3758 73.049 79.3814C73.049 80.3871 73.3306 81.1513 73.8937 81.7949C74.4569 82.4385 75.1809 82.7603 76.0659 82.7603C76.9509 82.7603 76.9106 82.6799 77.2727 82.519C77.6749 82.3581 78.0772 82.1167 78.4794 81.7547L78.399 82.881H78.3587ZM81.0136 79.4217C81.0136 80.3871 81.2952 81.1916 81.8583 81.8352C82.4215 82.4788 83.1053 82.8006 83.9501 82.8006C84.7948 82.8006 85.4786 82.4788 86.0418 81.8352C86.6049 81.1916 86.8865 80.3871 86.8865 79.4217C86.8865 78.4563 86.6049 77.6517 86.0418 77.0081C85.4786 76.3645 84.7948 76.0427 83.9501 76.0427C83.1053 76.0427 82.4215 76.3645 81.8583 77.0081C81.2952 77.6517 81.0136 78.4563 81.0136 79.4217ZM80.0482 79.4217C80.0482 78.8183 80.1287 78.2551 80.3298 77.7724C80.5309 77.2495 80.8125 76.807 81.1745 76.4048C81.5365 76.0025 81.9388 75.7209 82.4215 75.5198C82.9042 75.3187 83.3869 75.198 83.9098 75.198C84.4328 75.198 84.9155 75.3187 85.3982 75.5198C85.8809 75.7209 86.2831 76.0427 86.6452 76.4048C87.0072 76.807 87.2888 77.2495 87.4899 77.7724C87.691 78.2953 87.7715 78.8585 87.7715 79.4217C87.7715 79.9848 87.691 80.3871 87.5703 80.8295C87.4497 81.272 87.2485 81.6743 86.967 82.0363C86.6049 82.5592 86.1625 82.9615 85.5993 83.2431C85.0361 83.5246 84.473 83.6855 83.8696 83.6855C83.2662 83.6855 82.864 83.5649 82.3813 83.3637C81.8986 83.1626 81.4963 82.8408 81.1343 82.4788C80.7723 82.0765 80.4907 81.5938 80.2896 81.1111C80.0884 80.5882 80.008 80.0653 80.008 79.4619L80.0482 79.4217ZM90.1045 83.404V75.1578H90.2252L95.5349 81.3927V75.3991H96.4601V83.6453H96.3394L91.0699 77.4104V83.404H90.1447H90.1045ZM101.77 83.7258H101.649L98.23 75.4393H99.2357L101.73 81.6743L104.304 75.4393H105.229L101.77 83.7258ZM106.959 83.404V75.4393H111.303V76.2439H107.884V78.8585H110.861V79.663H107.884V82.5592H111.343V83.404H106.959ZM113.918 83.404V75.1578H114.039L119.348 81.3927V75.3991H120.273V83.6453H120.153L114.883 77.4104V83.404H113.958H113.918ZM124.899 83.404V76.2841H122.124V75.4393H128.64V76.2841H125.865V83.404H124.899ZM130.531 83.404V75.4393H131.456V83.404H130.531ZM134.755 79.4217C134.755 80.3871 135.036 81.1916 135.599 81.8352C136.162 82.4788 136.846 82.8006 137.691 82.8006C138.536 82.8006 139.22 82.4788 139.783 81.8352C140.346 81.1916 140.627 80.3871 140.627 79.4217C140.627 78.4563 140.346 77.6517 139.783 77.0081C139.22 76.3645 138.536 76.0427 137.691 76.0427C136.846 76.0427 136.162 76.3645 135.599 77.0081C135.036 77.6517 134.755 78.4563 134.755 79.4217ZM133.789 79.4217C133.789 78.8183 133.87 78.2551 134.071 77.7724C134.272 77.2495 134.553 76.807 134.915 76.4048C135.277 76.0025 135.68 75.7209 136.162 75.5198C136.645 75.3187 137.128 75.198 137.651 75.198C138.174 75.198 138.656 75.3187 139.139 75.5198C139.622 75.7209 140.024 76.0427 140.386 76.4048C140.748 76.807 141.03 77.2495 141.231 77.7724C141.432 78.2953 141.512 78.8585 141.512 79.4217C141.512 79.9848 141.432 80.3871 141.311 80.8295C141.191 81.272 140.989 81.6743 140.708 82.0363C140.346 82.5592 139.903 82.9615 139.34 83.2431C138.817 83.5246 138.214 83.6855 137.611 83.6855C137.007 83.6855 136.605 83.5649 136.122 83.3637C135.64 83.1626 135.237 82.8408 134.875 82.4788C134.513 82.0765 134.232 81.5938 134.031 81.1111C133.829 80.5882 133.749 80.0653 133.749 79.4619L133.789 79.4217ZM143.845 83.404V75.1578H143.966L149.276 81.3927V75.3991H150.201V83.6453H150.08L144.811 77.4104V83.404H143.886H143.845ZM161.947 82.881C161.585 83.1224 161.223 83.3235 160.821 83.4442C160.418 83.5649 160.016 83.6453 159.574 83.6453C159.131 83.6453 158.689 83.5649 158.286 83.404C157.884 83.2431 157.482 83.0419 157.16 82.7603C156.677 82.3581 156.275 81.8754 156.034 81.272C155.752 80.6686 155.631 80.0653 155.631 79.3412C155.631 78.1344 155.994 77.0886 156.758 76.2841C157.522 75.4796 158.447 75.0773 159.614 75.0773C160.78 75.0773 160.418 75.1578 160.821 75.2785C161.183 75.3991 161.585 75.6002 161.947 75.8416L161.866 76.8472C161.504 76.5254 161.142 76.3243 160.78 76.1634C160.418 76.0025 160.056 75.9623 159.654 75.9623C158.769 75.9623 158.045 76.2841 157.482 76.9277C156.919 77.5713 156.637 78.3758 156.637 79.3814C156.637 80.3871 156.919 81.1513 157.482 81.7949C158.045 82.4385 158.769 82.7603 159.654 82.7603C160.539 82.7603 160.499 82.6799 160.861 82.519C161.263 82.3581 161.665 82.1167 162.068 81.7547L161.987 82.881H161.947ZM164.24 83.404V75.4393H168.584V76.2439H165.165V78.8585H168.142V79.663H165.165V82.5592H168.624V83.404H164.24ZM171.158 83.404V75.1578H171.279L176.589 81.3927V75.3991H177.514V83.6453H177.393L172.124 77.4104V83.404H171.199H171.158ZM182.18 83.404V76.2841H179.405V75.4393H185.921V76.2841H183.146V83.404H182.18ZM187.812 83.404V75.4393H189.501C190.587 75.4393 191.432 75.6405 192.035 76.0427C192.598 76.445 192.88 77.0081 192.88 77.7724C192.88 78.5367 192.679 78.8585 192.317 79.2607C191.955 79.663 191.432 79.9446 190.829 80.025L193.685 83.4442H192.518L189.742 80.1457H188.737V83.4442H187.812V83.404ZM188.737 79.3814H189.541C190.306 79.3814 190.909 79.2608 191.311 78.9792C191.714 78.6976 191.915 78.2953 191.915 77.7724C191.915 77.2495 191.714 76.8472 191.311 76.5657C190.909 76.3243 190.265 76.2036 189.38 76.2036H188.737V79.3814ZM195.615 83.404V75.4393H199.96V76.2439H196.541V78.8585H199.517V79.663H196.541V82.5592H200V83.404H195.615Z" fill="white"/>
</svg>
