<svg width="50" height="50" viewBox="0 0 50 50" fill="none" xmlns="http://www.w3.org/2000/svg">
<rect width="50" height="50" rx="25" fill="#A6A19D"/>
<rect width="50" height="50" rx="25" fill="#86817C"/>
<rect width="50" height="50" rx="25" fill="#86817C"/>
<mask id="mask0_9_453" style="mask-type:luminance" maskUnits="userSpaceOnUse" x="13" y="13" width="24" height="24">
<path d="M37 13H13V37H37V13Z" fill="white"/>
</mask>
<g mask="url(#mask0_9_453)">
<path d="M35.4576 34.4287C35.9971 34.4287 36.4646 34.2505 36.8619 33.8988L30.0624 27.099C29.8992 27.2158 29.7411 27.3294 29.5917 27.4374C29.0829 27.8123 28.6699 28.1049 28.3527 28.3145C28.0357 28.5246 27.6138 28.7388 27.0872 28.9575C26.5602 29.1763 26.0692 29.2854 25.6138 29.2854H25.6005H25.5872C25.1317 29.2854 24.6408 29.1765 24.1138 28.9575C23.5869 28.7388 23.165 28.5246 22.8482 28.3145C22.5312 28.1049 22.1183 27.8124 21.6092 27.4374C21.4673 27.3334 21.31 27.2193 21.1399 27.0972L14.339 33.8988C14.7364 34.2505 15.2042 34.4287 15.7436 34.4287H35.4576Z" fill="white"/>
<path d="M14.9535 22.8169C14.4445 22.4776 13.9933 22.0891 13.6006 21.6514V31.9969L19.5937 26.0038C18.3947 25.1667 16.8499 24.1057 14.9535 22.8169Z" fill="white"/>
<path d="M36.262 22.8169C34.4379 24.0515 32.8875 25.1144 31.6106 26.0061L37.6014 31.9971V21.6514C37.2172 22.0803 36.771 22.4685 36.262 22.8169Z" fill="white"/>
<path d="M35.4573 15.571H15.7433C15.0556 15.571 14.5267 15.8033 14.1564 16.2672C13.7856 16.7315 13.6006 17.3121 13.6006 18.0083C13.6006 18.5707 13.8462 19.1801 14.3371 19.8366C14.8281 20.4929 15.3504 21.0083 15.9041 21.3833C16.2076 21.5977 17.1228 22.234 18.6497 23.2919C19.474 23.8631 20.1909 24.361 20.8068 24.7906C21.3318 25.1565 21.7847 25.4733 22.1585 25.7362C22.2015 25.7663 22.2689 25.8145 22.3585 25.8786C22.455 25.9479 22.5772 26.0359 22.7279 26.1447C23.0181 26.3545 23.259 26.5242 23.451 26.6538C23.6428 26.7834 23.8751 26.9281 24.1476 27.0889C24.4199 27.2495 24.6767 27.3703 24.9178 27.4506C25.1589 27.5309 25.3821 27.5711 25.5874 27.5711H25.6007H25.614C25.8192 27.5711 26.0425 27.5309 26.2836 27.4506C26.5246 27.3703 26.7813 27.2499 27.0538 27.0889C27.3259 26.9281 27.558 26.7831 27.7503 26.6538C27.9423 26.5242 28.1833 26.3545 28.4735 26.1447C28.6239 26.0359 28.746 25.9479 28.8426 25.8789C28.9321 25.8145 28.9997 25.7665 29.0428 25.7362C29.334 25.5335 29.788 25.218 30.3982 24.7943C31.5084 24.0228 33.1437 22.8874 35.3107 21.3833C35.9625 20.9281 36.5069 20.3788 36.9445 19.7361C37.3813 19.0935 37.6003 18.4193 37.6003 17.7139C37.6003 17.1246 37.3881 16.6204 36.9642 16.2004C36.54 15.7809 36.0377 15.571 35.4573 15.571Z" fill="white"/>
</g>
</svg>
