<svg width="24" height="25" viewBox="0 0 24 25" fill="none" xmlns="http://www.w3.org/2000/svg">
<path d="M11.8 21.0898H12.2C12.9499 21.0898 13.3249 21.0898 13.5878 20.8988C13.6727 20.8371 13.7473 20.7625 13.809 20.6776C14 20.4147 14 20.0397 14 19.2898V13.5898H15.25C15.9522 13.5898 16.3033 13.5898 16.5556 13.4213C16.6648 13.3483 16.7585 13.2546 16.8315 13.1454C17 12.8931 17 12.542 17 11.8398C17 11.1376 17 10.7865 16.8315 10.5342C16.7585 10.425 16.6648 10.3313 16.5556 10.2583C16.3033 10.0898 15.9522 10.0898 15.25 10.0898H14V8.08984C14 7.6239 14 7.39093 14.0761 7.20716C14.1776 6.96213 14.3723 6.76745 14.6173 6.66596C14.8011 6.58984 15.0341 6.58984 15.5 6.58984C15.9659 6.58984 16.1989 6.58984 16.3827 6.51372C16.6277 6.41223 16.8224 6.21755 16.9239 5.97252C17 5.78875 17 5.55578 17 5.08984V4.6454C17 4.12723 17 3.86815 16.9063 3.66722C16.8069 3.45415 16.6357 3.28289 16.4226 3.18353C16.2217 3.08984 15.9626 3.08984 15.4444 3.08984C13.6309 3.08984 12.7241 3.08984 12.0208 3.41776C11.2751 3.76552 10.6757 4.36491 10.3279 5.11068C10 5.81391 10 6.7207 10 8.53429V10.0898H8.75C8.04777 10.0898 7.69665 10.0898 7.44443 10.2583C7.33524 10.3313 7.24149 10.425 7.16853 10.5342C7 10.7865 7 11.1376 7 11.8398C7 12.542 7 12.8931 7.16853 13.1454C7.24149 13.2546 7.33524 13.3483 7.44443 13.4213C7.69665 13.5898 8.04777 13.5898 8.75 13.5898H10V19.2898C10 20.0397 10 20.4147 10.191 20.6776C10.2527 20.7625 10.3273 20.8371 10.4122 20.8988C10.6751 21.0898 11.0501 21.0898 11.8 21.0898Z" stroke="white" stroke-width="1.5" stroke-linejoin="round"/>
</svg>
