<svg width="45" height="45" viewBox="0 0 45 45" fill="none" xmlns="http://www.w3.org/2000/svg">
<path d="M19.146 10.1479C19.0747 10.1974 18.9925 10.2289 18.9063 10.2397C18.8202 10.2505 18.7327 10.2404 18.6514 10.21L16.4734 9.39806C16.3707 9.35975 16.2821 9.29095 16.2196 9.20088C16.157 9.1108 16.1235 9.00376 16.1235 8.8941V5.05467C16.1235 4.96567 16.1456 4.87806 16.1878 4.7997C16.2301 4.72134 16.2911 4.65468 16.3654 4.60569C16.4397 4.55671 16.525 4.52693 16.6136 4.51902C16.7023 4.51111 16.7915 4.52533 16.8733 4.56039L19.0519 5.49508C19.1486 5.53657 19.231 5.60552 19.289 5.69339C19.3469 5.78127 19.3778 5.88421 19.3777 5.98945L19.3771 9.70625C19.3771 9.88248 19.2907 10.0474 19.146 10.1479ZM17.1992 5.87068V8.52065L18.3015 8.93166L18.302 6.3438L17.1992 5.87068ZM16.348 10.8121C16.4175 10.7622 16.4978 10.7297 16.5823 10.7172C16.6669 10.7046 16.7532 10.7124 16.8341 10.7399L19.012 11.4785C19.1185 11.5145 19.211 11.5831 19.2765 11.6744C19.3419 11.7658 19.3771 11.8754 19.3771 11.9878L19.3771 15.9563C19.3771 16.0393 19.3579 16.1212 19.321 16.1956C19.2841 16.27 19.2304 16.3348 19.1642 16.3849C19.0981 16.4351 19.0212 16.4693 18.9396 16.4847C18.858 16.5002 18.774 16.4966 18.694 16.4742L16.5161 15.8633C16.4032 15.8316 16.3036 15.7638 16.2328 15.6703C16.1619 15.5768 16.1235 15.4627 16.1235 15.3454L16.1235 11.2492C16.1235 11.1638 16.1439 11.0795 16.1829 11.0035C16.222 10.9275 16.2786 10.8619 16.348 10.8121ZM17.1992 14.9376L18.3014 15.2468L18.3014 12.3733L17.1992 11.9995L17.1992 14.9376ZM16.3113 23.7468C16.3702 23.6963 16.4393 23.6592 16.5139 23.6379C16.5885 23.6166 16.6668 23.6117 16.7434 23.6235L18.9214 23.9599C19.0483 23.9795 19.164 24.0439 19.2476 24.1414C19.3312 24.2389 19.3771 24.3631 19.3771 24.4915V28.46C19.3771 28.535 19.3615 28.6091 19.3311 28.6777C19.3008 28.7462 19.2565 28.8077 19.201 28.8581C19.1455 28.9085 19.0801 28.9467 19.009 28.9704C18.9379 28.9941 18.8626 29.0026 18.788 28.9954L16.6101 28.7867C16.4769 28.7739 16.3533 28.712 16.2633 28.613C16.1733 28.514 16.1235 28.385 16.1235 28.2512V24.1551C16.1235 24.0775 16.1403 24.0009 16.1727 23.9304C16.2051 23.8599 16.2524 23.7973 16.3113 23.7468ZM17.1992 27.7625L18.3014 27.8682V24.9527L17.1992 24.7825V27.7626V27.7625ZM16.3298 17.2803C16.394 17.23 16.4688 17.1949 16.5486 17.1778C16.6284 17.1607 16.711 17.162 16.7902 17.1815L18.9682 17.7189C19.0849 17.7477 19.1886 17.8148 19.2627 17.9095C19.3368 18.0041 19.3771 18.1209 19.3771 18.2411V22.2065C19.3771 22.2855 19.3597 22.3636 19.3261 22.4352C19.2925 22.5068 19.2436 22.57 19.1827 22.6205C19.1219 22.671 19.0506 22.7074 18.9741 22.7272C18.8975 22.747 18.8175 22.7496 18.7398 22.735L16.5619 22.3251C16.4387 22.302 16.3274 22.2365 16.2474 22.14C16.1673 22.0435 16.1235 21.922 16.1235 21.7966V17.7037C16.1235 17.6221 16.1421 17.5415 16.1778 17.4682C16.2136 17.3948 16.2655 17.3306 16.3298 17.2803ZM17.1992 21.3506L18.3014 21.558V18.6623L17.1992 18.3903V21.3505V21.3506ZM23.0731 23.3557C23.0123 23.4062 22.9411 23.4426 22.8646 23.4625C22.7881 23.4823 22.7081 23.485 22.6305 23.4704L20.6971 23.1072C20.5738 23.084 20.4625 23.0185 20.3824 22.922C20.3023 22.8255 20.2585 22.7041 20.2585 22.5787V18.7217C20.2584 18.6401 20.277 18.5596 20.3127 18.4863C20.3484 18.4129 20.4003 18.3486 20.4646 18.2983C20.5288 18.248 20.6036 18.2129 20.6834 18.1958C20.7632 18.1787 20.8458 18.1799 20.925 18.1995L22.8584 18.676C22.9752 18.7048 23.0789 18.7718 23.1531 18.8665C23.2273 18.9612 23.2676 19.0779 23.2675 19.1982V22.9418C23.2675 23.1018 23.1963 23.2536 23.0731 23.3557ZM22.1918 19.6196L21.3342 19.4082V22.1325L22.1918 22.2936V19.6196ZM22.7297 29.368C22.7128 29.368 22.6955 29.3672 22.6784 29.3656L20.7456 29.1806C20.6124 29.1678 20.4888 29.1059 20.3988 29.0069C20.3088 28.9079 20.259 28.7789 20.259 28.6451V24.7975C20.259 24.7199 20.2758 24.6433 20.3082 24.5728C20.3406 24.5024 20.3879 24.4398 20.4468 24.3893C20.5056 24.3388 20.5747 24.3016 20.6493 24.2803C20.7238 24.259 20.8021 24.2541 20.8788 24.2659L22.8116 24.5639C22.9386 24.5835 23.0543 24.6479 23.138 24.7454C23.2216 24.8429 23.2675 24.9671 23.2675 25.0955V28.8301C23.2675 28.9728 23.2108 29.1096 23.11 29.2104C23.0091 29.3113 22.8723 29.3679 22.7297 29.368ZM22.1918 25.5567L21.3347 25.4245V28.1562L22.1918 28.2383V25.5567ZM23.0547 17.4791C22.9886 17.5293 22.9117 17.5635 22.8302 17.579C22.7486 17.5945 22.6646 17.5909 22.5847 17.5685L20.6513 17.0269C20.5383 16.9953 20.4387 16.9275 20.3678 16.834C20.2969 16.7405 20.2585 16.6264 20.2585 16.509L20.2585 12.6522C20.2585 12.5668 20.2788 12.4826 20.3178 12.4065C20.3569 12.3305 20.4134 12.2649 20.4829 12.2151C20.5523 12.1653 20.6326 12.1328 20.7171 12.1202C20.8016 12.1076 20.8879 12.1154 20.9689 12.1428L22.9023 12.7976C23.0088 12.8337 23.1013 12.9022 23.1668 12.9936C23.2323 13.085 23.2676 13.1946 23.2675 13.3071L23.2675 17.0507C23.2675 17.1337 23.2483 17.2156 23.2114 17.2899C23.1745 17.3643 23.1209 17.4291 23.0547 17.4792V17.4791ZM22.1918 13.6927L21.3342 13.4023L21.3342 16.1012L22.1918 16.3414L22.1918 13.6927ZM23.0369 11.5949C22.9657 11.6445 22.8836 11.6761 22.7975 11.687C22.7115 11.698 22.624 11.6879 22.5427 11.6577L20.6093 10.9408C20.5064 10.9026 20.4175 10.8338 20.3548 10.7437C20.2921 10.6535 20.2585 10.5464 20.2585 10.4366L20.2578 6.82715C20.2579 6.73815 20.28 6.65054 20.3222 6.57218C20.3644 6.49382 20.4254 6.42715 20.4997 6.37815C20.574 6.32915 20.6592 6.29935 20.7479 6.29142C20.8365 6.28348 20.9258 6.29766 21.0076 6.33269L22.9416 7.16169C23.0383 7.20316 23.1208 7.27211 23.1787 7.35999C23.2367 7.44786 23.2675 7.55081 23.2675 7.65606V11.1534C23.2675 11.3295 23.1814 11.4944 23.0369 11.5949ZM22.1918 8.01077L21.3337 7.64289L21.3341 10.0622L22.1918 10.3804V8.01077ZM38.7776 20.851C38.7074 20.9007 38.6262 20.9328 38.541 20.9446C38.4558 20.9564 38.369 20.9476 38.2878 20.9189L36.7142 20.3624C36.6094 20.3253 36.5186 20.2566 36.4544 20.1659C36.3902 20.0751 36.3557 19.9666 36.3556 19.8554L36.3552 16.9207C36.3551 16.8319 36.3771 16.7446 36.419 16.6664C36.461 16.5882 36.5216 16.5216 36.5956 16.4726C36.6695 16.4234 36.7544 16.3934 36.8427 16.3851C36.931 16.3768 37.02 16.3905 37.1018 16.425L38.6759 17.0879C38.7734 17.129 38.8567 17.1979 38.9152 17.2861C38.9738 17.3743 39.005 17.4777 39.005 17.5836V20.4118C39.005 20.5865 38.9203 20.7501 38.7776 20.851ZM37.9293 17.9406L37.431 17.7307L37.4312 19.475L37.9293 19.6511V17.9406ZM35.5956 19.7227C35.5253 19.7724 35.444 19.8044 35.3586 19.8161C35.2733 19.8278 35.1864 19.8188 35.1052 19.7899L33.2928 19.1449C33.1882 19.1076 33.0977 19.039 33.0337 18.9483C32.9697 18.8575 32.9353 18.7492 32.9354 18.6382V15.4765C32.9353 15.3876 32.9573 15.3002 32.9993 15.2219C33.0413 15.1436 33.1021 15.077 33.1761 15.028C33.2502 14.9789 33.3353 14.949 33.4237 14.9408C33.5122 14.9327 33.6013 14.9466 33.6831 14.9813L35.4954 15.7492C35.5927 15.7904 35.6757 15.8593 35.734 15.9474C35.7924 16.0355 35.8234 16.1388 35.8234 16.2444V19.2833C35.8234 19.3694 35.8027 19.4543 35.7631 19.5307C35.7234 19.6072 35.666 19.673 35.5956 19.7227ZM34.7477 16.6006L34.0111 16.2884V18.2587L34.7477 18.5209V16.6006ZM33.1335 25.4722C33.1954 25.4218 33.2678 25.3857 33.3453 25.3667C33.4229 25.3477 33.5037 25.3463 33.5819 25.3624L35.3937 25.7363C35.5149 25.7613 35.6238 25.8273 35.7019 25.9233C35.7801 26.0193 35.8228 26.1392 35.8228 26.263V29.506C35.8228 29.5829 35.8064 29.6588 35.7746 29.7288C35.7428 29.7987 35.6963 29.8611 35.6384 29.9115C35.5805 29.962 35.5124 29.9995 35.4388 30.0215C35.3651 30.0434 35.2876 30.0493 35.2115 30.0388L33.3998 29.7891C33.2711 29.7714 33.1532 29.7077 33.0678 29.6097C32.9824 29.5118 32.9354 29.3863 32.9354 29.2564V25.8892C32.9354 25.8094 32.9531 25.7305 32.9874 25.6584C33.0217 25.5863 33.0716 25.5227 33.1335 25.4723V25.4722ZM34.0111 28.7876L34.7471 28.8889V26.7012L34.0111 26.5493V28.7877V28.7876ZM38.3942 30.4769L36.821 30.2615C36.6922 30.2439 36.5742 30.1802 36.4887 30.0823C36.4033 29.9843 36.3562 29.8587 36.3562 29.7287V26.593C36.3562 26.5132 36.3739 26.4344 36.4081 26.3623C36.4424 26.2902 36.4922 26.2266 36.5541 26.1762C36.6159 26.1257 36.6882 26.0896 36.7657 26.0705C36.8432 26.0515 36.924 26.05 37.0022 26.0661L38.5753 26.3892C38.6966 26.4141 38.8057 26.4802 38.8839 26.5761C38.9622 26.6721 39.005 26.7922 39.005 26.916V29.9441C39.005 30.0209 38.9885 30.0968 38.9567 30.1667C38.9249 30.2366 38.8785 30.2989 38.8207 30.3494C38.7628 30.3999 38.6948 30.4374 38.6212 30.4594C38.5477 30.4814 38.4702 30.4874 38.3942 30.4769ZM37.9293 27.3546L37.4319 27.2524V29.2594L37.9293 29.3276V27.3546ZM38.7989 25.6031C38.7347 25.6535 38.6599 25.6886 38.5802 25.7057C38.5005 25.7229 38.4179 25.7216 38.3387 25.7021L36.7656 25.3152C36.6487 25.2865 36.5449 25.2195 36.4707 25.1248C36.3965 25.0301 36.3561 24.9133 36.3562 24.793V21.6572C36.3562 21.5728 36.376 21.4895 36.4142 21.4142C36.4524 21.3388 36.5077 21.2735 36.5758 21.2236C36.6439 21.1736 36.7228 21.1404 36.8061 21.1266C36.8894 21.1128 36.9748 21.1188 37.0554 21.1441L38.6285 21.6388C38.7377 21.6731 38.833 21.7414 38.9008 21.8337C38.9685 21.9259 39.005 22.0374 39.005 22.1519V25.1799C39.005 25.3452 38.929 25.5013 38.7989 25.6032V25.6031ZM37.9293 22.5465L37.4319 22.39V24.3714L37.9293 24.4937V22.5465ZM33.1553 20.1432C33.2235 20.0932 33.3025 20.06 33.3859 20.0463C33.4693 20.0326 33.5547 20.0387 33.6353 20.0642L35.447 20.6368C35.556 20.6713 35.6512 20.7396 35.7187 20.8318C35.7863 20.924 35.8227 21.0354 35.8227 21.1497V24.3946C35.8227 24.4762 35.8042 24.5567 35.7685 24.6301C35.7328 24.7035 35.6808 24.7677 35.6166 24.8181C35.5524 24.8684 35.4775 24.9034 35.3978 24.9205C35.318 24.9377 35.2353 24.9364 35.1561 24.9169L33.3444 24.4705C33.2276 24.4417 33.1239 24.3747 33.0497 24.28C32.9756 24.1853 32.9353 24.0685 32.9353 23.9483V20.5771C32.9353 20.4057 33.0169 20.2446 33.1552 20.1433L33.1553 20.1432ZM34.0111 23.5268L34.7471 23.7081V21.5437L34.0111 21.3109V23.5267V23.5268ZM0.637237 41.6823H3.81933L3.81933 4.9091C3.81933 4.80375 3.85027 4.70072 3.90831 4.6128C3.96635 4.52488 4.04893 4.45595 4.1458 4.41454L14.3713 0.0433659C14.4381 0.0147531 14.51 0 14.5827 0C14.6554 0 14.7273 0.0147531 14.7941 0.0433659L25.0197 4.41454C25.1166 4.45593 25.1991 4.52486 25.2572 4.61278C25.3152 4.70071 25.3462 4.80374 25.3461 4.9091V12.5395L29.8827 10.6002C29.9495 10.5715 30.0215 10.5568 30.0941 10.5568C30.1668 10.5568 30.2387 10.5715 30.3056 10.6002L40.9536 15.1519C41.0505 15.1933 41.1331 15.2622 41.1911 15.3501C41.2492 15.438 41.2801 15.5411 41.2801 15.6464L41.2801 41.6823H44.4622C44.6048 41.6823 44.7416 41.739 44.8425 41.8398C44.9433 41.9407 45 42.0775 45 42.2201V44.4622C45 44.6048 44.9433 44.7416 44.8425 44.8425C44.7416 44.9433 44.6048 45 44.4622 45L0.637237 45C0.494591 45 0.35779 44.9433 0.256924 44.8425C0.156058 44.7416 0.0993897 44.6048 0.0993897 44.4622V42.2201C0.0993897 42.0775 0.156058 41.9407 0.256924 41.8398C0.35779 41.739 0.494591 41.6823 0.637237 41.6823ZM4.89502 41.6823H14.0448L14.0448 1.35276L4.89502 5.26399L4.89502 41.6823ZM15.1206 1.35276L15.1206 41.6823L17.158 41.6823V33.0974L16.8741 33.0704C16.8038 33.0638 16.7355 33.0433 16.6731 33.0102C16.6107 32.9771 16.5554 32.9321 16.5105 32.8776C16.4655 32.8232 16.4317 32.7604 16.4109 32.6929C16.3902 32.6254 16.383 32.5544 16.3897 32.4841C16.3963 32.4138 16.4167 32.3454 16.4498 32.283C16.4829 32.2205 16.5279 32.1652 16.5824 32.1202C16.6369 32.0752 16.6997 32.0414 16.7672 32.0207C16.8348 32.0001 16.9057 31.9929 16.9761 31.9997L22.517 32.527C22.6588 32.5408 22.7894 32.6102 22.8801 32.7201C22.9708 32.8301 23.0142 32.9715 23.0007 33.1134C22.9871 33.2552 22.9179 33.3859 22.8081 33.4768C22.6983 33.5676 22.5569 33.6112 22.4151 33.5979L22.233 33.5806V41.6825H24.2705L24.2705 5.26407L15.1206 1.35276ZM18.2337 33.1998V41.6823H21.1572V33.478L18.2337 33.1998ZM25.3461 41.6823H29.5563L29.5563 11.9095L25.3461 13.7093L25.3461 41.6823ZM40.2044 16.0014L30.632 11.9095L30.632 41.6823H32.8808L32.8808 34.8006L32.5968 34.7735C32.5265 34.7669 32.4582 34.7464 32.3958 34.7133C32.3334 34.6802 32.2781 34.6352 32.2331 34.5807C32.1881 34.5263 32.1543 34.4635 32.1336 34.396C32.1129 34.3285 32.1057 34.2575 32.1124 34.1872C32.1404 33.8915 32.4033 33.6738 32.6987 33.7028L38.2396 34.2302C38.3815 34.2439 38.5121 34.3134 38.6028 34.4233C38.6934 34.5332 38.7368 34.6747 38.7233 34.8165C38.7098 34.9584 38.6405 35.0891 38.5307 35.18C38.4209 35.2708 38.2796 35.3144 38.1377 35.3011L37.9556 35.2838V41.6824H40.2044L40.2044 16.0014ZM33.9565 34.9031L33.9565 41.6823H36.8799L36.8799 35.1813L33.9565 34.9031ZM1.17518 43.9243L43.9243 43.9243V42.758L1.17509 42.758V43.9243H1.17518ZM10.0079 39.4425L10.0079 6.32857C10.0079 6.18592 9.95123 6.04912 9.85036 5.94825C9.74949 5.84738 9.61269 5.79072 9.47004 5.79072C9.3274 5.79072 9.1906 5.84738 9.08973 5.94825C8.98886 6.04912 8.9322 6.18592 8.9322 6.32857L8.9322 39.4425C8.9322 39.5852 8.98886 39.722 9.08973 39.8228C9.1906 39.9237 9.3274 39.9804 9.47004 39.9804C9.61269 39.9804 9.74949 39.9237 9.85036 39.8228C9.95123 39.722 10.0079 39.5852 10.0079 39.4425ZM7.45141 39.4425L7.45141 7.42138C7.45141 7.27874 7.39475 7.14193 7.29388 7.04107C7.19301 6.9402 7.05621 6.88353 6.91356 6.88353C6.77092 6.88353 6.63411 6.9402 6.53325 7.04107C6.43238 7.14193 6.37572 7.27874 6.37572 7.42138L6.37572 39.4425C6.37572 39.5852 6.43238 39.722 6.53325 39.8228C6.63411 39.9237 6.77092 39.9804 6.91356 39.9804C7.05621 39.9804 7.19301 39.9237 7.29388 39.8228C7.39475 39.722 7.45141 39.5852 7.45141 39.4425ZM12.5642 39.4425L12.5642 5.23584C12.5642 5.09319 12.5075 4.95639 12.4067 4.85552C12.3058 4.75466 12.169 4.69799 12.0263 4.69799C11.8837 4.69799 11.7469 4.75466 11.646 4.85552C11.5452 4.95639 11.4885 5.09319 11.4885 5.23584L11.4885 39.4425C11.4885 39.5852 11.5452 39.722 11.646 39.8228C11.7469 39.9237 11.8837 39.9804 12.0263 39.9804C12.169 39.9804 12.3058 39.9237 12.4067 39.8228C12.5075 39.722 12.5642 39.5852 12.5642 39.4425Z" fill="black"/>
</svg>
