<svg width="24" height="25" viewBox="0 0 24 25" fill="none" xmlns="http://www.w3.org/2000/svg">
<path d="M18.5 6.58984C18.5 7.14212 18.0523 7.58984 17.5 7.58984C16.9477 7.58984 16.5 7.14212 16.5 6.58984C16.5 6.03756 16.9477 5.58984 17.5 5.58984C18.0523 5.58984 18.5 6.03756 18.5 6.58984Z" fill="white"/>
<path d="M3 10.2898C3 7.29005 3 5.79016 3.76393 4.7387C4.01065 4.39912 4.30928 4.10049 4.64886 3.85377C5.70032 3.08984 7.20021 3.08984 10.2 3.08984H13.8C16.7998 3.08984 18.2997 3.08984 19.3511 3.85377C19.6907 4.10049 19.9893 4.39912 20.2361 4.7387C21 5.79016 21 7.29005 21 10.2898V13.8898C21 16.8896 21 18.3895 20.2361 19.4409C19.9893 19.7805 19.6907 20.0791 19.3511 20.3259C18.2997 21.0898 16.7998 21.0898 13.8 21.0898H10.2C7.20021 21.0898 5.70032 21.0898 4.64886 20.3259C4.30928 20.0791 4.01065 19.7805 3.76393 19.4409C3 18.3895 3 16.8896 3 13.8898V10.2898Z" stroke="white" stroke-width="1.5" stroke-linejoin="round"/>
<path d="M16 12.0898C16 14.2989 14.2091 16.0898 12 16.0898C9.79086 16.0898 8 14.2989 8 12.0898C8 9.8807 9.79086 8.08984 12 8.08984C14.2091 8.08984 16 9.8807 16 12.0898Z" stroke="white" stroke-width="1.5" stroke-linejoin="round"/>
</svg>
