<svg width="19" height="18" viewBox="0 0 19 18" fill="none" xmlns="http://www.w3.org/2000/svg">
<path d="M2.81494 9.0625C2.81494 5.23102 5.92096 2.125 9.75244 2.125C13.5839 2.125 16.6899 5.23102 16.6899 9.0625C16.6899 12.894 13.5839 16 9.75244 16C9.44178 16 9.18994 16.2518 9.18994 16.5625C9.18994 16.8732 9.44178 17.125 9.75244 17.125C14.2052 17.125 17.8149 13.5153 17.8149 9.0625C17.8149 4.6097 14.2052 1 9.75244 1C5.29964 1 1.68994 4.6097 1.68994 9.0625C1.68994 9.37316 1.94178 9.625 2.25244 9.625C2.5631 9.625 2.81494 9.37316 2.81494 9.0625Z" fill="#020204"/>
<path d="M7.15015 7.0625C6.83949 7.0625 6.58765 7.31434 6.58765 7.625C6.58765 7.93566 6.83949 8.1875 7.15015 8.1875H10.2921L4.2524 14.0625C4.03273 14.2822 4.03273 14.6383 4.2524 14.858C4.47207 15.0777 4.82822 15.0777 5.0479 14.858L11.0876 8.98299V12.125C11.0876 12.4357 11.3395 12.6875 11.6501 12.6875C11.9608 12.6875 12.2126 12.4357 12.2126 12.125V7.625C12.2126 7.31434 11.9608 7.0625 11.6501 7.0625H7.15015Z" fill="#020204"/>
</svg>
