<svg width="19" height="19" viewBox="0 0 19 19" fill="none" xmlns="http://www.w3.org/2000/svg">
<path d="M2.52502 9.1322C2.52502 5.30073 5.63104 2.1947 9.46252 2.1947C13.294 2.1947 16.4 5.30073 16.4 9.1322C16.4 12.9637 13.294 16.0697 9.46252 16.0697C9.15186 16.0697 8.90002 16.3215 8.90002 16.6322C8.90002 16.9429 9.15186 17.1947 9.46252 17.1947C13.9153 17.1947 17.525 13.585 17.525 9.1322C17.525 4.67941 13.9153 1.0697 9.46252 1.0697C5.00972 1.0697 1.40002 4.67941 1.40002 9.1322C1.40002 9.44286 1.65186 9.6947 1.96252 9.6947C2.27318 9.6947 2.52502 9.44286 2.52502 9.1322Z" fill="white"/>
<path d="M6.86023 7.1322C6.54957 7.1322 6.29773 7.38404 6.29773 7.6947C6.29773 8.00536 6.54957 8.2572 6.86023 8.2572H10.0022L3.96248 14.1322C3.74281 14.3519 3.74281 14.708 3.96248 14.9277C4.18215 15.1474 4.5383 15.1474 4.75798 14.9277L10.7977 9.0527V12.1947C10.7977 12.5054 11.0496 12.7572 11.3602 12.7572C11.6709 12.7572 11.9227 12.5054 11.9227 12.1947V7.6947C11.9227 7.38404 11.6709 7.1322 11.3602 7.1322H6.86023Z" fill="white"/>
</svg>
