<svg width="45" height="45" viewBox="0 0 45 45" fill="none" xmlns="http://www.w3.org/2000/svg">
<path d="M9.1604 37.7391C9.44182 38.0768 9.44182 38.4004 9.1604 38.71C8.87897 39.0196 8.5694 39.0337 8.23169 38.7522C7.78141 38.4145 7.33113 37.9924 6.88085 37.4858C6.54313 37.2044 6.52906 36.9089 6.83863 36.5993C7.1482 36.2897 7.47184 36.2757 7.80955 36.5571C8.20355 36.9511 8.62569 37.3451 9.07597 37.7391C9.07597 37.7391 9.10411 37.7391 9.1604 37.7391ZM1.39304 18.574C1.50561 18.18 1.77297 18.0534 2.1951 18.1941C2.61724 18.3348 2.77203 18.6021 2.65946 18.9961C2.4906 19.559 2.37803 20.1218 2.32175 20.6847C2.26546 21.0787 2.04032 21.2757 1.64632 21.2757H1.5619C1.1679 21.2194 0.999045 20.9943 1.05533 20.6003C1.11162 19.9248 1.19604 19.3057 1.30861 18.7428C1.30861 18.6866 1.33676 18.6303 1.39304 18.574ZM5.86771 34.2776C6.09285 34.6153 6.03657 34.8967 5.69886 35.1218C5.36115 35.4033 5.05158 35.3751 4.77015 35.0374C4.43244 34.5308 4.09473 34.0243 3.75702 33.5177C3.53188 33.1237 3.60223 32.8141 3.96809 32.589C4.33394 32.3639 4.62944 32.4483 4.85458 32.8423C5.19229 33.2926 5.53 33.771 5.86771 34.2776ZM3.50374 30.1406C3.67259 30.5346 3.56002 30.816 3.16602 30.9849C2.77203 31.1537 2.4906 31.013 2.32175 30.5627C2.09661 29.9999 1.89961 29.437 1.73075 28.8742C1.5619 28.4239 1.70261 28.1425 2.15289 28.0299C2.60317 27.9173 2.8846 28.058 2.99717 28.452C3.10974 29.0149 3.27859 29.5777 3.50374 30.1406ZM3.0816 13.9305C3.25045 13.5365 3.53188 13.438 3.92587 13.635C4.31987 13.832 4.43244 14.1275 4.26359 14.5215C3.98216 14.9717 3.72888 15.5064 3.50374 16.1256C3.33488 16.5196 3.05345 16.6321 2.65946 16.4633C2.26546 16.2944 2.15289 16.013 2.32175 15.619C2.54689 15.0562 2.80017 14.4933 3.0816 13.9305ZM2.32175 25.4971C2.37803 25.9473 2.20918 26.2006 1.81518 26.2569H1.64632C1.30861 26.2569 1.11162 26.0599 1.05533 25.6659C0.94276 24.8779 0.886475 24.2588 0.886475 23.8085C0.886475 23.3582 1.09754 23.1331 1.51968 23.1331C1.94182 23.1331 2.18103 23.3582 2.23732 23.8085C2.23732 24.3714 2.26546 24.9342 2.32175 25.4971ZM19.1229 2.87042C19.5732 2.81414 19.8264 3.01114 19.8827 3.46142C19.939 3.9117 19.742 4.13684 19.2917 4.13684C18.7289 4.19313 18.166 4.27755 17.6032 4.39012H17.4343V4.47455C16.984 4.47455 16.7448 4.26348 16.7167 3.84134C16.6885 3.4192 16.8996 3.17999 17.3499 3.12371C17.9127 3.01114 18.5037 2.92671 19.1229 2.87042ZM5.86771 9.70907C6.14914 9.37136 6.45871 9.34322 6.79642 9.62465C7.13413 9.90607 7.16227 10.2156 6.88085 10.5534C6.48685 11.0036 6.121 11.4539 5.78329 11.9042C5.67071 12.1293 5.50186 12.2419 5.27672 12.2419C5.10786 12.2419 4.96715 12.1856 4.85458 12.0731C4.51687 11.7916 4.46058 11.4821 4.68572 11.1443C5.07972 10.6378 5.47372 10.1594 5.86771 9.70907ZM24.273 2.95485C24.667 3.01114 24.8499 3.25035 24.8217 3.67249C24.7936 4.09463 24.5544 4.3057 24.1041 4.3057H24.0197C23.5131 4.19313 22.9503 4.1087 22.3311 4.05241C21.8808 4.05241 21.6698 3.82727 21.6979 3.37699C21.7261 2.92671 21.9653 2.72971 22.4156 2.786C23.0347 2.786 23.6538 2.84228 24.273 2.95485ZM10.5957 6.50082C10.8208 6.83853 10.7645 7.1481 10.4268 7.42952C9.92025 7.76723 9.46996 8.10495 9.07597 8.44266C8.68197 8.72408 8.34426 8.69594 8.06283 8.35823C7.78141 8.02052 7.80955 7.71095 8.14726 7.42952C8.65383 7.03553 9.1604 6.66967 9.66696 6.33196C10.0047 6.10682 10.3142 6.16311 10.5957 6.50082ZM14.3105 3.96798C14.7045 3.85541 14.9718 4.0102 15.1126 4.43234C15.2533 4.85448 15.0985 5.12183 14.6482 5.2344C14.0853 5.40326 13.5506 5.6284 13.0441 5.90982C12.9315 5.96611 12.8471 5.99425 12.7908 5.99425C12.5094 5.99425 12.3124 5.85354 12.1998 5.57211C11.9747 5.17812 12.0591 4.89669 12.4531 4.72783C12.9596 4.50269 13.5506 4.24941 14.2261 3.96798C14.2261 3.96798 14.2542 3.96798 14.3105 3.96798ZM22.4156 42.0449C22.8658 41.9886 23.105 42.1856 23.1332 42.6359C23.1613 43.0862 22.9503 43.3113 22.5 43.3113C22.2186 43.3676 21.7683 43.3958 21.1491 43.3958H20.6426C20.1923 43.3958 19.9671 43.1706 19.9671 42.7203C19.9671 42.27 20.1923 42.0449 20.6426 42.0449C21.2617 42.1012 21.8527 42.1012 22.4156 42.0449ZM39.6388 27.7766C39.6951 27.3826 39.9484 27.2419 40.3987 27.3545C40.849 27.467 41.0178 27.7203 40.9052 28.1143C40.7364 28.7335 40.5394 29.3245 40.3142 29.8873C40.2017 30.3376 39.9343 30.4783 39.5122 30.3094C39.09 30.1406 38.9353 29.8592 39.0478 29.4652C39.273 28.9023 39.47 28.3395 39.6388 27.7766ZM41.2429 19.756C41.2992 20.2063 41.1304 20.4595 40.7364 20.5158H40.5675C40.2298 20.5158 40.0328 20.347 39.9765 20.0093C39.864 19.3901 39.7232 18.8273 39.5544 18.3207C39.4981 17.8704 39.667 17.589 40.061 17.4764C40.455 17.3639 40.7082 17.5327 40.8208 17.983C40.9897 18.5458 41.1304 19.1368 41.2429 19.756ZM44.0291 12.1575C44.1979 12.5515 44.1135 12.8329 43.7758 13.0018L40.652 14.6903L38.879 17.8986C38.6538 18.2926 38.3724 18.377 38.0347 18.1518L36.6838 16.801C36.515 16.6321 36.4587 16.407 36.515 16.1256L37.1904 14.0993L34.5732 11.5665L33.3912 13.6772C35.53 16.3789 36.6276 19.4323 36.6838 22.8376C36.7401 26.2428 35.7833 29.3526 33.8133 32.1669C31.2805 35.6565 27.9034 37.7532 23.682 38.4567C19.4606 39.1603 15.605 38.2597 12.1154 35.755C8.62569 33.2503 6.52906 29.8873 5.8255 25.6659C5.12193 21.4445 6.00843 17.589 8.48497 14.0993C10.9615 10.6096 14.3246 8.51301 18.5741 7.80945C22.8236 7.10588 26.6932 7.99238 30.1829 10.4689L30.8583 8.10495L28.4099 5.74097C28.2411 5.6284 28.1004 5.48768 27.9878 5.31883C27.5938 5.14997 27.2561 5.0374 26.9747 4.98112C26.5807 4.81226 26.454 4.51677 26.5947 4.09463C26.7354 3.67249 27.0028 3.54585 27.3968 3.7147L27.6501 3.79913C27.7064 3.63027 27.7626 3.46142 27.8189 3.29256C28.1004 2.61714 28.5788 2.13872 29.2542 1.85729C30.2111 1.46329 31.0272 1.66029 31.7026 2.44829L34.0666 4.98112L41.0741 2.786C41.2992 2.72971 41.5244 2.786 41.7495 2.95485L43.2692 4.55898C43.3255 4.61526 43.3818 4.67155 43.4381 4.72783C43.6069 5.12183 43.4944 5.40326 43.1004 5.57211L37.5281 8.61151L39.9765 11.2288L42.0872 10.6378C42.3687 10.5252 42.5938 10.5815 42.7626 10.8066L43.9446 11.9886C44.0009 12.0449 44.0291 12.1012 44.0291 12.1575ZM11.1867 13.0862C8.59754 15.619 7.21856 18.6866 7.0497 22.2888C7.78141 22.2888 8.9634 23.0205 10.5957 24.4839C11.4399 25.2156 12.1294 25.7926 12.6641 26.2147C13.1989 26.6368 13.9868 27.059 15.0281 27.4811C16.0694 27.9033 17.0966 28.1143 18.1097 28.1143C18.8414 28.1143 19.545 27.9736 20.2204 27.6922C19.8827 27.2982 19.0666 26.8198 17.772 26.2569C15.3518 25.1875 14.5075 23.8085 15.2392 22.12C15.6332 21.2757 16.8715 19.953 18.954 18.1518C20.0797 17.2513 21.1491 16.2663 22.1623 15.1969C24.1885 12.9455 24.1604 10.8629 22.0778 8.94922C21.7401 8.89294 21.4306 8.8648 21.1491 8.8648C17.2655 8.8648 13.9446 10.2719 11.1867 13.0862ZM35.4174 23.0487C35.4174 22.4858 35.3611 21.923 35.2486 21.3601C34.4606 21.8104 33.954 22.2044 33.7289 22.5421C33.5037 22.8798 33.3349 23.3301 33.2223 23.8929C33.166 24.6246 33.0675 25.2016 32.9268 25.6237C32.7861 26.0458 32.378 26.7353 31.7026 27.6922C31.0272 28.649 30.0422 29.634 28.7476 30.6472C27.7345 31.4914 26.8621 32.4764 26.1304 33.6021C25.6238 34.5027 25.455 35.4877 25.6238 36.5571C28.5506 35.6003 30.9146 33.8836 32.7157 31.407C34.5169 28.9305 35.4174 26.1443 35.4174 23.0487ZM34.5732 18.3207C34.1229 17.0824 33.5319 15.9286 32.8002 14.8592L31.4493 17.1387C31.2805 17.5327 30.999 17.6171 30.605 17.392L28.9165 15.7879C28.7476 15.5627 28.6914 15.3376 28.7476 15.1125L29.7608 11.7353C28.0722 10.4408 26.1585 9.56836 24.0197 9.11808C25.5957 11.2569 25.2861 13.5646 23.091 16.0412C22.0778 17.1669 20.9803 18.18 19.7983 19.0806C17.8283 20.8254 16.7026 22.0074 16.4212 22.6265C16.0272 23.5271 16.6745 24.3432 18.363 25.0749C19.8264 25.7503 20.7833 26.3695 21.2336 26.9323C21.515 27.2138 21.6276 27.5796 21.5713 28.0299C21.4587 28.4239 21.2054 28.7053 20.8114 28.8742C19.9671 29.2119 19.0947 29.3807 18.1942 29.3807C17.0122 29.437 15.8302 29.226 14.6482 28.7475C13.4662 28.2691 12.5797 27.8048 11.9887 27.3545C11.3977 26.9042 10.652 26.2569 9.75139 25.4126C8.34426 24.1744 7.41556 23.5552 6.96527 23.5552C7.02156 24.4558 7.16227 25.3564 7.38741 26.2569C8.23169 30.0843 10.3142 33.0393 13.6351 35.1218C16.9559 37.2044 20.53 37.7954 24.3574 36.8948C24.076 35.544 24.3011 34.2494 25.0328 33.0111C25.8208 31.7166 26.8058 30.619 27.9878 29.7185C29.1135 28.7616 29.9859 27.8751 30.605 27.059C31.2242 26.2428 31.59 25.6378 31.7026 25.2438C31.8152 24.8498 31.9137 24.3714 31.9981 23.8085C32.0825 23.2457 32.167 22.8094 32.2514 22.4999C32.3358 22.1903 32.6032 21.8104 33.0535 21.3601C33.5037 20.9098 34.1792 20.4595 35.0797 20.0093C34.9109 19.4464 34.742 18.8836 34.5732 18.3207ZM40.4831 13.4239L42.4249 12.3263L42.0872 11.9886L39.9765 12.5796C39.7514 12.6922 39.5544 12.6359 39.3855 12.4108C37.1341 10.0468 35.9803 8.83665 35.924 8.78037C35.7551 8.38637 35.8396 8.10495 36.1773 7.93609L41.8339 4.81226L41.1585 4.13684L34.0666 6.24753C33.7852 6.36011 33.56 6.30382 33.3912 6.07868L30.7739 3.29256C30.4925 2.95485 30.1548 2.87042 29.7608 3.03928H29.6763C29.3949 3.20814 29.1698 3.46142 29.0009 3.79913C28.8321 4.19313 28.9165 4.53084 29.2542 4.81226L32.0403 7.42952C32.2655 7.59838 32.3217 7.82352 32.2092 8.10495L30.0985 15.1125L30.7739 15.7879C32.8565 12.0731 33.9259 10.1875 33.9822 10.1312C34.2636 9.7935 34.545 9.7935 34.8264 10.1312L38.3724 13.4239C38.5975 13.5928 38.6538 13.8179 38.5413 14.0993L37.9503 16.21L38.2035 16.5477L39.3011 14.5215L39.6388 14.0149C39.6951 13.846 39.7795 13.7335 39.8921 13.6772L40.4831 13.4239ZM38.7945 31.998C39.1323 32.2231 39.2167 32.5046 39.0478 32.8423C38.7101 33.4051 38.3724 33.9398 38.0347 34.4464C37.8096 34.8404 37.5141 34.9108 37.1482 34.6575C36.7823 34.4042 36.712 34.0806 36.9371 33.6866C37.2748 33.2363 37.5844 32.7579 37.8658 32.2513C38.091 31.8573 38.3724 31.7729 38.7101 31.998H38.7945ZM40.2298 22.9642C40.2298 22.514 40.4409 22.2888 40.863 22.2888C41.2852 22.2888 41.4962 22.514 41.4962 22.9642V23.0487C41.4962 23.7241 41.4681 24.3432 41.4118 24.9061C41.4118 25.3564 41.1867 25.5534 40.7364 25.4971C40.2861 25.4971 40.0891 25.2719 40.1454 24.8216C40.2017 24.2588 40.2298 23.6678 40.2298 23.0487V22.9642ZM17.6876 41.7072C18.0816 41.7635 18.2645 42.0168 18.2364 42.467C18.2082 42.9173 17.969 43.1143 17.5187 43.058H17.4343C16.7589 42.9455 16.1398 42.8048 15.5769 42.6359C15.5769 42.6359 15.5488 42.6359 15.4925 42.6359C15.0985 42.467 14.9718 42.1715 15.1126 41.7494C15.2533 41.3273 15.5488 41.2006 15.999 41.3695C16.4493 41.4821 17.0122 41.5946 17.6876 41.7072ZM27.9034 41.5383C28.0159 41.9323 27.8752 42.2138 27.4812 42.3826C26.8621 42.5515 26.2711 42.7203 25.7082 42.8892C25.258 43.0018 24.9906 42.8329 24.9062 42.3826C24.8217 41.9323 24.9765 41.6791 25.3705 41.6228C25.9334 41.5102 26.4962 41.3413 27.0591 41.1162C27.4531 41.0036 27.7345 41.1443 27.9034 41.5383ZM13.1285 40.2719C13.5225 40.4971 13.621 40.8066 13.424 41.2006C13.227 41.5946 12.9315 41.6791 12.5375 41.4539C11.9184 41.1725 11.3837 40.8911 10.9334 40.6096C10.5394 40.3845 10.455 40.089 10.6801 39.7231C10.9052 39.3573 11.2148 39.2869 11.6088 39.5121C12.1717 39.7935 12.6782 40.0468 13.1285 40.2719ZM35.0797 36.0505C35.3611 35.7691 35.6566 35.7691 35.9662 36.0505C36.2758 36.332 36.2899 36.6415 36.0084 36.9792C35.727 37.2607 35.2767 37.6828 34.6576 38.2457C34.3199 38.5834 34.0103 38.5834 33.7289 38.2457C33.4474 37.9079 33.4756 37.5984 33.8133 37.317C34.3199 36.8104 34.742 36.3882 35.0797 36.0505ZM31.4493 39.0899C31.787 38.8648 32.0685 38.9492 32.2936 39.3432C32.5187 39.7372 32.4625 40.0468 32.1247 40.2719C31.5619 40.6096 31.0272 40.9192 30.5206 41.2006C30.1266 41.3695 29.8171 41.2569 29.5919 40.8629C29.3668 40.4689 29.4512 40.1875 29.8452 40.0186C30.4643 39.6809 30.9709 39.3714 31.3649 39.0899V39.1744L31.4493 39.0899Z" fill="black"/>
</svg>
