<svg width="60" height="61" viewBox="0 0 60 61" fill="none" xmlns="http://www.w3.org/2000/svg">
<g clip-path="url(#clip0_9_427)">
<path d="M30 0.450195C24.0666 0.450195 18.2664 2.20966 13.3329 5.50611C8.39943 8.80255 4.55426 13.4879 2.28363 18.9697C0.0129986 24.4515 -0.581102 30.4835 0.576455 36.3029C1.73401 42.1223 4.59123 47.4678 8.78681 51.6634C12.9824 55.859 18.3279 58.7162 24.1473 59.8738C29.9667 61.0313 35.9987 60.4372 41.4805 58.1666C46.9623 55.896 51.6477 52.0508 54.9441 47.1173C58.2405 42.1838 60 36.3836 60 30.4502C59.9913 22.4964 56.8278 14.8708 51.2036 9.24659C45.5794 3.62238 37.9538 0.458883 30 0.450195ZM30 55.4502C25.0555 55.4502 20.222 53.984 16.1108 51.2369C11.9995 48.4899 8.79522 44.5854 6.90303 40.0173C5.01083 35.4491 4.51575 30.4225 5.48038 25.5729C6.44501 20.7234 8.82603 16.2688 12.3223 12.7725C15.8187 9.27621 20.2732 6.89519 25.1228 5.93056C29.9723 4.96593 34.9989 5.46102 39.5671 7.35321C44.1353 9.2454 48.0397 12.4497 50.7868 16.5609C53.5338 20.6722 55 25.5057 55 30.4502C54.9926 37.0783 52.3562 43.4328 47.6695 48.1196C42.9827 52.8064 36.6281 55.4427 30 55.4502Z" fill="white"/>
<path d="M39.9355 27.1688L28.6426 19.2861C28.0428 18.8678 27.3399 18.6219 26.6102 18.5751C25.8804 18.5283 25.1519 18.6824 24.5036 19.0206C23.8553 19.3589 23.3121 19.8683 22.933 20.4936C22.554 21.1189 22.3536 21.8361 22.3535 22.5673V38.333C22.353 39.0644 22.5531 39.782 22.932 40.4076C23.311 41.0332 23.8542 41.5429 24.5027 41.8813C25.1512 42.2196 25.8801 42.3736 26.61 42.3265C27.3399 42.2794 28.043 42.033 28.6426 41.6141L39.9355 33.7313V33.7292C40.4638 33.3606 40.8952 32.8699 41.193 32.2988C41.4909 31.7277 41.6465 31.0931 41.6465 30.449C41.6465 29.8049 41.4909 29.1703 41.193 28.5992C40.8952 28.028 40.4638 27.5374 39.9355 27.1688Z" fill="white"/>
</g>
<defs>
<clipPath id="clip0_9_427">
<rect width="60" height="60" fill="white" transform="translate(0 0.450195)"/>
</clipPath>
</defs>
</svg>
