<svg width="63" height="62" viewBox="0 0 63 62" fill="none" xmlns="http://www.w3.org/2000/svg">
<path d="M45.5536 35.0062C44.2441 34.8447 41.4315 34.2147 40.9962 35.9664C40.4057 38.3429 43.2079 42.2721 48.1214 46.9385C49.6308 48.4655 52.9043 51.047 52.3136 53.4243C51.8473 55.3008 50.0987 56.3615 47.2517 55.3278C44.5322 54.3227 40.6516 51.4726 36.0808 45.4306C31.2845 39.2055 27.6806 29.8142 29.67 21.8082C31.6906 13.6766 39.3357 6.8048 48.4129 8.83785C55.6993 10.4698 60.6271 17.2521 58.793 24.6334C57.3933 30.2628 51.8142 35.8798 45.5536 35.0062Z" fill="black"/>
<path d="M26.5535 34.3547C25.37 34.6566 24.131 34.7501 22.863 34.5728C21.5535 34.4112 18.7409 33.7813 18.3056 35.533C17.7151 37.9095 20.5173 41.8387 25.4308 46.5051C26.941 48.0322 30.2129 50.6134 29.6221 52.9907C29.1559 54.8672 27.4072 55.9279 24.5603 54.8942C21.8408 53.8891 17.9602 51.039 13.3894 44.997C8.59392 38.7721 4.98918 29.3806 6.97877 21.3738C8.99938 13.2423 16.6445 6.37042 25.7217 8.40348C27.8556 8.88142 29.7854 9.80386 31.4036 11.0509C28.8253 13.8184 26.9595 17.2707 26.0603 20.8895C24.9507 25.3582 25.3444 30.0211 26.5535 34.3547Z" fill="black"/>
</svg>
