<svg width="58" height="56" viewBox="0 0 58 56" fill="none" xmlns="http://www.w3.org/2000/svg">
<path d="M14.105 30.59C15.4244 30.5902 18.293 30.3096 18.5104 32.1015C18.8052 34.5324 15.5426 38.0886 10.0943 42.1177C8.40916 43.4482 4.84404 45.6092 5.139 48.0409C5.37183 49.9604 6.97728 51.2274 9.92946 50.5504C12.7516 49.8861 16.9522 47.533 22.229 42.0967C27.7519 36.5063 32.4795 27.6274 31.4862 19.4379C30.4772 11.12 23.7318 3.36312 14.4738 4.26853C7.04246 4.9953 1.32062 11.1226 2.23645 18.673C2.93577 24.4315 7.78449 30.6899 14.105 30.59Z" fill="black"/>
<path d="M33.0405 32.2717C34.178 32.7163 35.3963 32.9609 36.6765 32.9403C37.9958 32.9405 40.8645 32.6599 41.0818 34.4518C41.3767 36.8827 38.1141 40.4389 32.6658 44.468C30.9798 45.7986 27.4163 47.9594 27.7113 50.3911C27.9441 52.3107 29.5495 53.5777 32.5017 52.9007C35.3238 52.2364 39.5245 49.8833 44.8012 44.4469C50.3234 38.8566 55.0518 29.9776 54.0583 21.7873C53.0494 13.4694 46.3039 5.71254 37.046 6.61795C34.8696 6.83079 32.8414 7.50982 31.0826 8.54915C33.3023 11.6117 34.7309 15.2667 35.1799 18.9683C35.7336 23.5394 34.7715 28.1189 33.0405 32.2717Z" fill="black"/>
</svg>
