<svg width="73" height="73" viewBox="0 0 73 73" fill="none" xmlns="http://www.w3.org/2000/svg">
<g clip-path="url(#clip0_217_2437)">
<path d="M50.8306 23.8853C58.2634 31.5654 58.089 43.7915 50.4412 51.1931C42.7933 58.5947 30.5681 58.3689 23.1353 50.6889C15.7025 43.0088 15.8769 30.7828 23.5248 23.3811C24.1449 22.781 24.1591 21.7898 23.5563 21.167C22.9536 20.5442 21.9624 20.526 21.3423 21.1261C12.4543 29.728 12.2517 43.9367 20.8897 52.8621C29.5278 61.7876 43.7355 62.0499 52.6236 53.4481C61.5116 44.8462 61.7142 30.6375 53.0762 21.7121C52.4735 21.0894 51.4823 21.0711 50.8622 21.6712C50.2421 22.2713 50.228 23.2626 50.8306 23.8853Z" fill="white"/>
<path d="M46.057 36.2684C46.6771 35.6683 46.6912 34.677 46.0886 34.0543C45.4859 33.4316 44.4947 33.4132 43.8746 34.0134L37.603 40.0831L38.2616 16.6393C38.2739 15.7746 37.5831 15.0608 36.7184 15.0448C35.8537 15.0287 35.1428 15.7168 35.1305 16.5815L34.472 40.0251L28.3768 33.7271C27.774 33.1043 26.7827 33.0862 26.1628 33.6862C25.5426 34.2864 25.5285 35.2776 26.1312 35.9004L34.8608 44.9205C35.4635 45.5432 36.4547 45.5615 37.0748 44.9613L46.057 36.2684Z" fill="white"/>
</g>
<defs>
<clipPath id="clip0_217_2437">
<rect width="50" height="53" fill="white" transform="translate(72.7871 38.0847) rotate(135.937)"/>
</clipPath>
</defs>
</svg>
