<svg width="25" height="18" viewBox="0 0 25 18" fill="none" xmlns="http://www.w3.org/2000/svg">
<path d="M12.4991 18C12.497 18 12.4947 18 12.4924 18C11.7381 17.9949 5.06921 17.9342 3.17979 17.4251C1.85933 17.0715 0.816965 16.0341 0.461054 14.7182C-0.0333311 12.869 -0.00185979 9.30862 0.00157343 9.02432C-0.00166906 8.74136 -0.0335218 5.15154 0.459528 3.28708C0.4601 3.28537 0.460481 3.28347 0.461054 3.28176C0.812959 1.98095 1.87879 0.911421 3.17655 0.556811C3.17979 0.555861 3.18322 0.5551 3.18646 0.55415C5.05452 0.064993 11.7365 0.00513103 12.4924 0H12.506C13.2622 0.00513103 19.9488 0.0657531 21.8209 0.575624C23.1379 0.928335 24.1795 1.96442 24.5364 3.27853C25.0493 5.14432 25.0018 8.74193 24.9966 9.04561C25.0002 9.34473 25.0302 12.8732 24.5387 14.7317C24.5383 14.7336 24.5377 14.7353 24.5373 14.7371C24.1812 16.0529 23.139 17.0903 21.8171 17.4443C21.8153 17.4449 21.8134 17.4453 21.8117 17.4458C19.9439 17.9348 13.2616 17.9947 12.506 18C12.5037 18 12.5014 18 12.4991 18ZM2.34742 3.78612C1.91331 5.43185 1.95432 8.97587 1.9547 9.01159V9.03725C1.94173 10.0201 1.98731 12.8665 2.34761 14.2146C2.52232 14.8602 3.03636 15.3716 3.68829 15.5462C5.08237 15.9219 10.5139 16.0401 12.4991 16.054C14.4894 16.0401 19.929 15.9252 21.3128 15.5645C21.9626 15.3893 22.4749 14.8796 22.6508 14.2333C23.0114 12.8654 23.0566 10.0329 23.0435 9.05625C23.0435 9.04599 23.0435 9.03573 23.0437 9.02547C23.0616 8.03081 23.0263 5.15116 22.6525 3.7922C22.6521 3.79087 22.6517 3.78954 22.6515 3.78821C22.476 3.1398 21.9618 2.62841 21.3099 2.45377C19.9294 2.07768 14.489 1.95986 12.4991 1.94599C10.5101 1.95986 5.07588 2.07464 3.68791 2.43495C3.04837 2.61169 2.52271 3.14132 2.34742 3.78612ZM10.0098 12.9404V5.05938L16.8457 9L10.0098 12.9404Z" fill="white"/>
</svg>
