<svg width="37" height="45" viewBox="0 0 37 45" fill="none" xmlns="http://www.w3.org/2000/svg">
<path d="M18.6494 0C24.7543 0 30.242 2.8743 33.7047 7.8855C37.1519 12.8742 37.9488 19.1874 35.8386 24.7683C35.2855 26.2609 34.4009 27.7177 33.212 29.0943L20.3334 44.2217C20.1258 44.4657 19.8677 44.6616 19.577 44.796C19.2862 44.9304 18.9698 45 18.6494 45C18.3291 45 18.0127 44.9304 17.7219 44.796C17.4312 44.6616 17.1731 44.4657 16.9655 44.2217L4.08768 29.0954C2.84772 27.6591 1.98795 26.243 1.45961 24.7664C-0.649141 19.1827 0.148427 12.8723 3.59431 7.88578C7.05684 2.87421 12.5442 0 18.6494 0L18.6494 0ZM2.66682 24.3169C2.66801 24.3206 2.66939 24.3241 2.67087 24.328C3.14455 25.6547 3.92776 26.9393 5.06467 28.2559L5.06743 28.2594L17.9465 43.3869C18.0332 43.4886 18.1409 43.5703 18.2622 43.6264C18.3836 43.6824 18.5156 43.7114 18.6493 43.7114C18.783 43.7114 18.915 43.6824 19.0364 43.6264C19.1577 43.5703 19.2655 43.4886 19.3521 43.3869L32.2339 28.2559C33.3248 26.9928 34.131 25.6687 34.632 24.3165C36.5943 19.1272 35.8515 13.2584 32.6444 8.61792C29.4261 3.95977 24.3252 1.28818 18.6494 1.28818C12.9737 1.28818 7.87244 3.95977 4.6542 8.61792C1.44737 13.2585 0.70446 19.1272 2.66691 24.3169H2.66682Z" fill="black"/>
<path d="M18.6494 3.81885C26.6596 3.81885 33.1764 10.3356 33.1764 18.3461C33.1764 26.3562 26.6596 32.873 18.6494 32.873C10.6392 32.873 4.12214 26.3562 4.12214 18.346C4.12214 10.3356 10.6392 3.81885 18.6494 3.81885ZM18.6494 31.5848C25.9493 31.5848 31.8882 25.646 31.8882 18.346C31.8882 11.0457 25.9493 5.10703 18.6494 5.10703C11.3495 5.10703 5.41032 11.0462 5.41032 18.3461C5.41032 25.6457 11.3495 31.5848 18.6494 31.5848Z" fill="black"/>
<path d="M9.80013 12.2866L13.8648 12.2866V8.69377C13.863 8.61031 13.8779 8.52732 13.9086 8.44968C13.9392 8.37204 13.9851 8.3013 14.0435 8.24162C14.102 8.18205 14.1718 8.13477 14.2488 8.10255C14.3259 8.07033 14.4086 8.05383 14.4921 8.054H22.2089C22.3823 8.05188 22.5498 8.11757 22.6755 8.23707C22.8012 8.35657 22.8754 8.52044 22.8821 8.69377V14.4029H25.2507C25.6066 14.4029 25.9185 14.6631 25.9185 15.0194V16.8872H27.4989C27.67 16.8919 27.8322 16.9643 27.95 17.0885C28.0677 17.2128 28.1313 17.3786 28.1268 17.5497V25.0811C28.1284 25.1645 28.1133 25.2474 28.0825 25.325C28.0517 25.4026 28.0058 25.4732 27.9474 25.5329C27.8888 25.5924 27.819 25.6396 27.742 25.6718C27.665 25.7041 27.5824 25.7206 27.4989 25.7206L9.80004 25.7206C9.71651 25.7207 9.63378 25.7042 9.55674 25.6719C9.47971 25.6396 9.40991 25.5922 9.35148 25.5325C9.29293 25.4729 9.2469 25.4022 9.2161 25.3245C9.1853 25.2469 9.17035 25.1639 9.17214 25.0803L9.17214 12.9048C9.17076 12.8224 9.18612 12.7406 9.21731 12.6644C9.2485 12.5881 9.29486 12.5189 9.35357 12.4611C9.41229 12.4033 9.48214 12.358 9.55889 12.328C9.63564 12.298 9.71777 12.2839 9.80013 12.2866ZM15.153 9.34218L15.153 24.4323H21.5939V15.1056C21.5939 15.0772 21.5874 15.0485 21.5874 15.019C21.5874 14.9896 21.5939 14.961 21.5939 14.9327V9.34218L15.153 9.34218ZM26.8386 18.1754H25.2507C25.1683 18.177 25.0865 18.1618 25.0102 18.1308C24.9339 18.0999 24.8646 18.0538 24.8066 17.9953C24.7487 17.9368 24.7031 17.8671 24.6728 17.7906C24.6425 17.714 24.628 17.6321 24.6303 17.5497V15.6911H22.8821V24.4323H26.8386L26.8386 18.1754ZM10.4603 24.4323L13.8648 24.4323L13.8648 13.5748H10.4603L10.4603 24.4323Z" fill="black"/>
<path d="M12.6337 19.8315H11.8743C11.7053 19.8287 11.5443 19.7596 11.4258 19.6391C11.3074 19.5186 11.241 19.3564 11.241 19.1874C11.241 19.0185 11.3074 18.8563 11.4258 18.7358C11.5443 18.6153 11.7053 18.5462 11.8743 18.5434H12.6337C12.8027 18.5462 12.9637 18.6153 13.0822 18.7358C13.2007 18.8563 13.267 19.0185 13.267 19.1874C13.267 19.3564 13.2007 19.5186 13.0822 19.6391C12.9637 19.7596 12.8027 19.8287 12.6337 19.8315ZM12.6337 21.6718H11.8743C11.7053 21.6689 11.5443 21.5998 11.4258 21.4793C11.3074 21.3589 11.241 21.1967 11.241 21.0277C11.241 20.8587 11.3074 20.6965 11.4258 20.5761C11.5443 20.4556 11.7053 20.3865 11.8743 20.3836H12.6337C12.8027 20.3865 12.9637 20.4556 13.0822 20.5761C13.2007 20.6965 13.267 20.8587 13.267 21.0277C13.267 21.1967 13.2007 21.3589 13.0822 21.4793C12.9637 21.5998 12.8027 21.6689 12.6337 21.6718ZM11.8743 22.1319H12.6337C12.8027 22.1347 12.9637 22.2038 13.0822 22.3243C13.2007 22.4448 13.267 22.607 13.267 22.776C13.267 22.9449 13.2007 23.1071 13.0822 23.2276C12.9637 23.3481 12.8027 23.4172 12.6337 23.42H11.8743C11.7053 23.4172 11.5443 23.3481 11.4258 23.2276C11.3074 23.1071 11.241 22.9449 11.241 22.776C11.241 22.607 11.3074 22.4448 11.4258 22.3243C11.5443 22.2038 11.7053 22.1347 11.8743 22.1319ZM16.5332 16.7714C16.1773 16.7714 15.8891 16.4832 15.8891 16.1273V14.961C15.8891 14.6051 16.1773 14.3169 16.5332 14.3169C16.889 14.3169 17.1772 14.6051 17.1772 14.961V16.1273C17.1772 16.4832 16.889 16.7714 16.5332 16.7714ZM18.3734 16.7714C18.0176 16.7714 17.7293 16.4832 17.7293 16.1273V14.961C17.7293 14.6051 18.0176 14.3169 18.3734 14.3169C18.7292 14.3169 19.0175 14.6051 19.0175 14.961V16.1273C19.0175 16.4832 18.7292 16.7714 18.3734 16.7714ZM20.1217 16.7714C19.7658 16.7714 19.4776 16.4832 19.4776 16.1273V14.961C19.4776 14.6051 19.7658 14.3169 20.1217 14.3169C20.4775 14.3169 20.7657 14.6051 20.7657 14.961V16.1273C20.7657 16.4832 20.4775 16.7714 20.1217 16.7714ZM12.6337 16.151H11.8743C11.7053 16.1482 11.5443 16.0791 11.4258 15.9586C11.3074 15.8381 11.241 15.6759 11.241 15.5069C11.241 15.338 11.3074 15.1758 11.4258 15.0553C11.5443 14.9348 11.7053 14.8657 11.8743 14.8628H12.6337C12.8027 14.8657 12.9637 14.9348 13.0822 15.0553C13.2007 15.1758 13.267 15.338 13.267 15.5069C13.267 15.6759 13.2007 15.8381 13.0822 15.9586C12.9637 16.0791 12.8027 16.1482 12.6337 16.151ZM12.6337 17.9913H11.8743C11.7053 17.9884 11.5443 17.9193 11.4258 17.7988C11.3074 17.6784 11.241 17.5162 11.241 17.3472C11.241 17.1782 11.3074 17.016 11.4258 16.8956C11.5443 16.7751 11.7053 16.706 11.8743 16.7031H12.6337C12.8027 16.706 12.9637 16.7751 13.0822 16.8956C13.2007 17.016 13.267 17.1782 13.267 17.3472C13.267 17.5162 13.2007 17.6784 13.0822 17.7988C12.9637 17.9193 12.8027 17.9884 12.6337 17.9913ZM16.5332 13.6879C16.1773 13.6879 15.8891 13.3997 15.8891 13.0438V11.8775C15.8891 11.5217 16.1773 11.2334 16.5332 11.2334C16.889 11.2334 17.1772 11.5217 17.1772 11.8775V13.0438C17.1772 13.3997 16.889 13.6879 16.5332 13.6879ZM18.3734 13.6879C18.0176 13.6879 17.7293 13.3997 17.7293 13.0438V11.8775C17.7293 11.5217 18.0176 11.2334 18.3734 11.2334C18.7292 11.2334 19.0175 11.5217 19.0175 11.8775V13.0438C19.0175 13.3997 18.7292 13.6879 18.3734 13.6879ZM20.1217 13.6879C19.7658 13.6879 19.4776 13.3997 19.4776 13.0438V11.8775C19.4776 11.5217 19.7658 11.2334 20.1217 11.2334C20.4775 11.2334 20.7657 11.5217 20.7657 11.8775V13.0438C20.7657 13.3997 20.4775 13.6879 20.1217 13.6879ZM16.5332 19.8549C16.1773 19.8549 15.8891 19.5666 15.8891 19.2108V18.0446C15.8891 17.6887 16.1773 17.4005 16.5332 17.4005C16.889 17.4005 17.1772 17.6887 17.1772 18.0446V19.2109C17.1772 19.5667 16.889 19.8549 16.5332 19.8549ZM18.3734 19.8549C18.0176 19.8549 17.7293 19.5666 17.7293 19.2108V18.0446C17.7293 17.6887 18.0176 17.4005 18.3734 17.4005C18.7292 17.4005 19.0175 17.6887 19.0175 18.0446V19.2109C19.0175 19.5667 18.7292 19.8549 18.3734 19.8549ZM20.1217 19.8549C19.7658 19.8549 19.4776 19.5666 19.4776 19.2108V18.0446C19.4776 17.6887 19.7658 17.4005 20.1217 17.4005C20.4775 17.4005 20.7657 17.6887 20.7657 18.0446V19.2109C20.7657 19.5667 20.4775 19.8549 20.1217 19.8549ZM16.5332 22.9387C16.1773 22.9387 15.8891 22.6502 15.8891 22.2946L15.8891 21.128C15.8919 20.9591 15.961 20.798 16.0815 20.6795C16.202 20.5611 16.3642 20.4947 16.5332 20.4947C16.7021 20.4947 16.8643 20.5611 16.9848 20.6795C17.1053 20.798 17.1744 20.9591 17.1772 21.128V22.2947C17.1772 22.6502 16.889 22.9387 16.5332 22.9387ZM18.3734 22.9387C18.0176 22.9387 17.7293 22.6502 17.7293 22.2946V21.128C17.7322 20.9591 17.8013 20.798 17.9218 20.6795C18.0423 20.5611 18.2045 20.4947 18.3734 20.4947C18.5424 20.4947 18.7046 20.5611 18.8251 20.6795C18.9455 20.798 19.0146 20.9591 19.0175 21.128V22.2947C19.0175 22.6502 18.7292 22.9387 18.3734 22.9387ZM20.1217 22.9387C19.7658 22.9387 19.4776 22.6502 19.4776 22.2946V21.128C19.4804 20.9591 19.5495 20.798 19.67 20.6795C19.7905 20.5611 19.9527 20.4947 20.1217 20.4947C20.2906 20.4947 20.4528 20.5611 20.5733 20.6795C20.6938 20.798 20.7629 20.9591 20.7657 21.128V22.2947C20.7657 22.6502 20.4775 22.9387 20.1217 22.9387Z" fill="black"/>
</svg>
