<svg width="50" height="50" viewBox="0 0 50 50" fill="none" xmlns="http://www.w3.org/2000/svg">
<rect width="50" height="50" rx="25" fill="#EA2031"/>
<rect width="50" height="50" rx="25" fill="#FF3D24" fill-opacity="0.7"/>
<rect width="50" height="50" rx="25" fill="#F5F4F4"/>
<path d="M19.5305 15.0188C20.0786 15.6725 22.5061 19.5059 22.3947 20.143C22.3416 20.4422 22.0866 20.671 21.356 21.2835C20.9963 21.5667 20.6595 21.8778 20.3486 22.2138C20.4973 22.8294 20.7182 23.4253 21.0067 23.9891C22.0832 26.2003 23.8701 27.9866 26.0815 29.0625C26.6454 29.351 27.2413 29.5719 27.8569 29.7206C28.1929 29.4097 28.504 29.0729 28.7872 28.7132C29.3997 27.9833 29.627 27.7276 29.9277 27.6745C30.5663 27.5631 34.3982 29.9928 35.0518 30.5387C35.3225 30.7675 35.5043 30.9754 35.5043 31.2417C35.5043 32.0134 31.1878 35.5043 30.6284 35.5043C30.5828 35.5043 26.089 35.4296 20.315 29.7542C14.6396 23.9802 14.5648 19.4864 14.5648 19.4408C14.5648 18.8814 18.0558 14.5649 18.8275 14.5649C19.0937 14.5649 19.3016 14.7466 19.5305 15.0188Z" fill="#86807D"/>
<path d="M25.7824 19.7998L25.7824 18.3041C27.3686 18.3059 28.8893 18.9368 30.0109 20.0584C31.1325 21.18 31.7634 22.7006 31.7651 24.2868L30.2695 24.2868C30.2683 23.0971 29.7952 21.9565 28.9539 21.1153C28.1127 20.2741 26.9721 19.801 25.7824 19.7998Z" fill="#86807D"/>
<path d="M25.7824 16.0606L25.7824 14.5649C28.3599 14.5679 30.831 15.5931 32.6535 17.4157C34.4761 19.2382 35.5013 21.7093 35.5043 24.2868L34.0086 24.2868C34.006 22.1059 33.1385 20.015 31.5964 18.4728C30.0542 16.9307 27.9633 16.0632 25.7824 16.0606Z" fill="#86807D"/>
</svg>
