<svg width="24" height="24" viewBox="0 0 24 24" fill="none" xmlns="http://www.w3.org/2000/svg">
<path d="M6.53048 2.01885C7.07865 2.67246 9.50612 6.50587 9.3947 7.14302C9.3416 7.44216 9.08659 7.67099 8.35595 8.28347C7.99633 8.56672 7.65951 8.87778 7.34862 9.21378C7.49733 9.82941 7.71823 10.4253 8.00671 10.9891C9.08323 13.2003 10.8701 14.9866 13.0815 16.0625C13.6454 16.351 14.2413 16.5719 14.8569 16.7206C15.1929 16.4097 15.504 16.0729 15.7872 15.7132C16.3997 14.9833 16.627 14.7276 16.9277 14.6745C17.5663 14.5631 21.3982 16.9928 22.0518 17.5387C22.3225 17.7675 22.5043 17.9754 22.5043 18.2417C22.5043 19.0134 18.1878 22.5043 17.6284 22.5043C17.5828 22.5043 13.089 22.4296 7.31496 16.7542C1.63963 10.9802 1.56485 6.48642 1.56485 6.4408C1.56485 5.88142 5.05575 1.56491 5.82752 1.56491C6.09375 1.56491 6.30164 1.74663 6.53048 2.01885Z" fill="#86807D"/>
<path d="M12.7824 6.79979L12.7824 5.30411C14.3686 5.30589 15.8893 5.93678 17.0109 7.05837C18.1325 8.17996 18.7634 9.70064 18.7651 11.2868L17.2695 11.2868C17.2683 10.0971 16.7952 8.95654 15.9539 8.11531C15.1127 7.27409 13.9721 6.80097 12.7824 6.79979Z" fill="#86807D"/>
<path d="M12.7824 3.0606L12.7824 1.56493C15.3599 1.5679 17.831 2.59312 19.6535 4.41568C21.4761 6.23824 22.5013 8.70931 22.5043 11.2868L21.0086 11.2868C21.006 9.10587 20.1385 7.015 18.5964 5.47284C17.0542 3.93069 14.9633 3.06318 12.7824 3.0606Z" fill="#86807D"/>
</svg>
