<svg width="50" height="50" viewBox="0 0 50 50" fill="none" xmlns="http://www.w3.org/2000/svg">
<rect width="50" height="50" rx="25" fill="#0BC349"/>
<rect width="50" height="50" rx="25" fill="#FF3D24" fill-opacity="0.7"/>
<rect width="50" height="50" rx="25" fill="#0BC349"/>
<path d="M32.5503 18.0283C30.8297 16.2978 28.5437 15.2362 26.105 15.0349C23.6663 14.8337 21.2356 15.5062 19.2518 16.9309C17.2679 18.3557 15.8617 20.4389 15.2869 22.8043C14.7122 25.1698 15.0068 27.6616 16.1175 29.83L15.0293 35.0842C15.0176 35.1367 15.0172 35.191 15.028 35.2437C15.0387 35.2964 15.0605 35.3462 15.0919 35.39C15.1368 35.4562 15.2009 35.5073 15.2758 35.5363C15.3507 35.5653 15.4327 35.5709 15.5108 35.5523L20.6801 34.3321C22.8546 35.4077 25.3423 35.6812 27.7005 35.1037C30.0587 34.5263 32.1344 33.1354 33.558 31.1787C34.9816 29.2219 35.6609 26.8263 35.4749 24.4182C35.2888 22.0101 34.2496 19.7458 32.5421 18.0283H32.5503ZM30.9342 30.8446C29.7442 32.0259 28.2119 32.8065 26.5527 33.0768C24.8935 33.3472 23.1908 33.0935 21.684 32.3516L20.9603 31.9945L17.7853 32.7412V32.7006L18.4546 29.5162L18.1009 28.8235C17.3305 27.321 17.0584 25.6145 17.3239 23.9487C17.5893 22.2829 18.3785 20.7436 19.5782 19.5515C21.0847 18.055 23.1269 17.2143 25.2562 17.2143C27.3855 17.2143 29.4278 18.055 30.9342 19.5515L30.9696 19.6002C32.4564 21.1015 33.2864 23.1263 33.2788 25.2335C33.2712 27.3406 32.4265 29.3594 30.9288 30.85L30.9342 30.8446Z" fill="white"/>
<path d="M30.6546 28.5281C30.2655 29.1368 29.6479 29.8809 28.878 30.0675C27.5177 30.3922 25.4473 30.0675 22.8545 27.6839L22.8218 27.6542C20.5664 25.56 19.9679 23.815 20.1012 22.4324C20.1801 21.6451 20.8385 20.9362 21.3935 20.4709C21.4817 20.3969 21.5862 20.3444 21.6984 20.3177C21.8107 20.291 21.9277 20.2908 22.04 20.3171C22.1524 20.3434 22.257 20.3955 22.3455 20.4691C22.434 20.5428 22.504 20.6361 22.5498 20.7414L23.385 22.6191C23.4395 22.74 23.46 22.8733 23.4442 23.0048C23.4284 23.1364 23.3769 23.2611 23.2952 23.3658L22.8708 23.9069C22.7826 24.0193 22.73 24.1552 22.7199 24.2974C22.7097 24.4395 22.7423 24.5815 22.8137 24.7051C23.2168 25.296 23.6992 25.8294 24.2475 26.2906C24.8373 26.8551 25.5063 27.3317 26.2335 27.7056C26.3663 27.7588 26.5119 27.7715 26.6519 27.7421C26.7919 27.7127 26.92 27.6425 27.0198 27.5405L27.5068 27.0481C27.5995 26.949 27.7179 26.8774 27.849 26.8411C27.9801 26.8048 28.1187 26.8053 28.2495 26.8425L30.2356 27.408C30.3481 27.4398 30.4516 27.4976 30.5375 27.5765C30.6234 27.6555 30.6895 27.7535 30.7303 27.8625C30.771 27.9716 30.7855 28.0887 30.7723 28.2043C30.7592 28.3199 30.7188 28.4308 30.6546 28.5281Z" fill="white"/>
</svg>
