<svg width="118" height="43" viewBox="0 0 118 43" fill="none" xmlns="http://www.w3.org/2000/svg">
<g opacity="0.8">
<path fill-rule="evenodd" clip-rule="evenodd" d="M113.435 2.98142C114.57 8.70805 112.41 14.1521 108.41 18.7283C98.1258 30.4671 79.8303 29.7957 63.0306 25.3214C56.9761 23.7169 50.6517 21.1839 44.4123 18.2899L44.2926 18.2079C42.3328 17.2984 40.3735 16.3486 38.4544 15.3994L6.86561 0.0794877L0.451616 7.92425C19.5264 17.0533 54.5526 37.3643 81.7901 37.1418C85.8138 37.0714 89.8415 36.6793 93.7944 35.8437C97.2635 35.0826 100.818 33.9202 104.098 32.1911C110.416 28.8508 115.193 23.2383 116.568 16.1753C117.386 11.9213 116.92 7.36968 114.842 3.03925L113.434 3.02164L113.435 2.98142Z" fill="white"/>
<path fill-rule="evenodd" clip-rule="evenodd" d="M0.385757 9.89444L1.12681 14.9725C21.8426 24.7657 41.5358 35.914 64.4925 40.224C77.0569 42.3926 92.4564 43.0277 104.809 36.4238C111.167 33.0437 115.984 27.3915 117.36 20.3286C117.747 18.322 117.854 16.2314 117.638 14.1771C117.626 15.1826 117.452 16.1862 117.279 17.1897C115.17 28.1457 105.398 34.3393 95.3499 36.8285C85.5438 39.2804 74.6084 38.7414 65.0999 36.6915C57.4371 35.0267 50.3444 32.8059 42.8184 29.8555C37.6544 27.8197 32.5739 25.5436 27.5346 23.1876C18.4152 18.9702 9.42312 14.2315 0.42597 9.89494L0.385757 9.89444Z" fill="white"/>
</g>
</svg>
